<svg width="708" height="124" viewBox="0 0 708 124" fill="none" xmlns="http://www.w3.org/2000/svg">
<path fill-rule="evenodd" clip-rule="evenodd" d="M617.289 111.906C617.289 118.464 611.974 123.78 605.415 123.78C598.855 123.78 593.541 118.464 593.541 111.906V55.9928C593.541 49.4338 598.855 44.1178 605.415 44.1178C611.974 44.1178 617.289 49.4338 617.289 55.9928V111.906ZM620.749 15.5542C620.749 24.0242 613.884 30.8882 605.415 30.8882C596.945 30.8882 590.081 24.0242 590.081 15.5542C590.081 7.0842 596.945 0.2202 605.415 0.2202C613.884 0.2202 620.749 7.0842 620.749 15.5542ZM654.188 55.4205V57.3655C657.052 52.7215 661.103 49.1395 666.343 46.6175C671.579 44.0995 677.607 42.8385 684.425 42.8385C689.465 42.8385 693.542 43.7525 696.655 45.5805C699.766 47.4115 702.162 49.7825 703.842 52.6965C705.524 55.6135 706.634 58.8005 707.179 62.2575C707.72 65.7175 707.993 69.0755 707.993 72.3365V123.538H684.277V78.4125C684.277 73.2775 683.314 69.5445 681.387 67.2235C679.46 64.9005 676.916 63.7385 673.753 63.7385C672.073 63.7385 670.368 64.0855 668.64 64.7755C666.909 65.4685 665.279 66.4325 663.749 67.6675C662.214 68.9035 660.807 70.3605 659.525 72.0385C658.238 73.7225 657.249 75.5475 656.559 77.5255V123.538H632.843V55.1235V54.8545C632.914 49.1415 637.463 44.5205 643.147 44.3205H643.903C649.484 44.5165 653.964 48.9835 654.188 54.5565V55.4205V55.4205ZM223.113 67.8143C221.432 62.8233 219.112 58.5013 216.147 54.8423C213.183 51.1893 209.648 48.2973 205.55 46.1713C201.447 44.0493 196.927 42.9853 191.987 42.9853C186.058 42.9853 180.944 44.2443 176.645 46.7643C172.346 49.2843 168.912 52.7693 166.342 57.2133V12.1653H166.328C166.328 12.1313 166.334 12.1003 166.334 12.0663C166.334 5.5243 161.03 0.220299 154.489 0.220299C147.946 0.220299 142.643 5.5243 142.643 12.0663C142.643 12.1003 142.648 12.1313 142.648 12.1653H142.627V123.684H143.302V123.697H166.202V113.514C168.333 116.127 170.869 118.292 173.829 119.99C178.224 122.508 183.389 123.769 189.319 123.769C194.456 123.769 199.25 122.753 203.696 120.729C208.143 118.704 211.997 115.889 215.258 112.281C218.518 108.675 221.061 104.424 222.892 99.5343C224.719 94.6423 225.634 89.3793 225.634 83.7473C225.634 78.1133 224.794 72.8043 223.113 67.8143V67.8143ZM199.991 91.6763C199.101 94.0993 197.842 96.1973 196.211 97.9773C194.58 99.7553 192.602 101.163 190.281 102.202C187.96 103.239 185.414 103.758 182.647 103.758C179.387 103.758 176.274 102.795 173.311 100.868C170.345 98.9403 168.023 96.2983 166.342 92.9373V76.6323C168.023 72.7803 170.419 69.5683 173.531 66.9973C176.645 64.4303 180.077 63.1453 183.834 63.1453C186.402 63.1453 188.748 63.6883 190.874 64.7743C192.999 65.8623 194.852 67.3443 196.433 69.2213C198.012 71.0993 199.224 73.2973 200.064 75.8163C200.904 78.3373 201.325 80.9813 201.325 83.7473C201.325 86.6153 200.88 89.2563 199.991 91.6763V91.6763ZM348.957 55.5669V57.5109C351.822 52.8679 355.873 49.2849 361.113 46.7639C366.348 44.2449 372.377 42.9849 379.195 42.9849C384.235 42.9849 388.311 43.8989 391.424 45.7269C394.536 47.5569 396.931 49.9279 398.612 52.8419C400.294 55.7589 401.404 58.9459 401.949 62.4029C402.49 65.8629 402.762 69.2209 402.762 72.4819V123.684H379.046V78.5579C379.046 73.4239 378.084 69.6909 376.157 67.3689C374.229 65.0469 371.685 63.8839 368.523 63.8839C366.842 63.8839 365.137 64.2309 363.41 64.9219C361.678 65.6149 360.048 66.5779 358.518 67.8139C356.984 69.0489 355.577 70.5059 354.294 72.1849C353.007 73.8679 352.018 75.6939 351.329 77.6719V123.684H327.612V55.2699V54.9999C327.684 49.2879 332.233 44.6659 337.917 44.4669H338.672C344.253 44.6629 348.733 49.1299 348.957 54.7019V55.5669V55.5669ZM121.135 55.0666C117.577 51.3606 113.228 48.4206 108.092 46.2446C102.951 44.0726 97.0711 42.9846 90.4521 42.9846C83.8311 42.9846 77.9261 44.0726 72.7391 46.2446C67.5511 48.4206 63.1791 51.3856 59.6211 55.1406C56.0631 58.8966 53.3441 63.2686 51.4681 68.2586C49.5901 73.2486 48.6521 78.5586 48.6521 84.1926C48.6521 88.7366 49.3601 93.1116 50.7741 97.3186C49.6171 99.0196 48.0651 100.457 46.0771 101.608C43.6061 103.044 40.8891 103.759 37.9241 103.759C35.5531 103.759 33.3041 103.265 31.1791 102.277C29.0541 101.289 27.2011 99.9026 25.6221 98.1266C24.9161 97.3346 23.7241 95.6646 23.7241 89.4586V12.1206C23.7271 5.5236 18.4231 0.2206 11.8811 0.2206C5.35514 0.2206 0.0631432 5.5006 0.0381432 12.0196L0.00714111 95.8646C0.00714111 102.873 4.25314 108.395 7.31514 111.54C10.9221 115.245 15.3201 118.211 20.5071 120.435C22.2231 121.17 24.0201 121.772 25.8821 122.265C29.6491 123.261 33.7081 123.77 38.0731 123.77C47.0631 123.77 54.6971 121.843 60.9741 117.987C62.1241 117.281 63.1981 116.525 64.2341 115.746C66.8291 117.639 69.6901 119.274 72.8871 120.582C78.0751 122.705 83.9301 123.77 90.4521 123.77C99.4431 123.77 107.151 121.843 113.576 117.987C119.999 114.135 124.741 109.145 127.805 103.017L107.647 97.3846C106.998 99.0946 105.972 100.593 104.569 101.879C103.619 102.751 102.494 103.525 101.198 104.203C97.9851 105.884 94.6521 106.722 91.1931 106.722C86.8431 106.722 82.9671 105.366 79.5581 102.648C76.1491 99.9306 74.2441 95.9516 73.8501 90.7136H131.363C131.559 89.7286 131.708 88.5636 131.808 87.2316C131.904 85.8976 131.955 84.5396 131.955 83.1556C131.955 77.8186 131.041 72.7296 129.213 67.8876C127.385 63.0476 124.692 58.7716 121.135 55.0666V55.0666ZM73.4051 76.0396C73.8991 71.1996 75.6531 67.3196 78.6681 64.4026C81.6801 61.4886 85.5101 60.0316 90.1551 60.0316C94.7011 60.0316 98.5041 61.4646 101.568 64.3296C104.631 67.1966 106.41 71.0996 106.905 76.0396H73.4051ZM577.966 68.1083C576.088 63.2193 573.371 58.9183 569.813 55.2133C566.257 51.5083 561.906 48.5423 556.77 46.3193C551.631 44.0983 545.75 42.9853 539.131 42.9853C532.509 42.9853 526.605 44.0983 521.418 46.3193C516.229 48.5423 511.857 51.5083 508.299 55.2133C504.743 58.9183 502.048 63.2193 500.221 68.1083C498.392 73.0003 497.479 78.1133 497.479 83.4503C497.479 88.7873 498.392 93.9003 500.221 98.7923C502.048 103.685 504.743 107.982 508.299 111.687C511.857 115.395 516.229 118.336 521.418 120.508C526.605 122.68 532.509 123.769 539.131 123.769C545.75 123.769 551.655 122.68 556.844 120.508C562.032 118.336 566.404 115.395 569.962 111.687C573.52 107.982 576.21 103.685 578.04 98.7923C579.868 93.9003 580.783 88.7873 580.783 83.4503C580.783 78.1133 579.842 73.0003 577.966 68.1083ZM554.991 91.6763C554.101 94.1973 552.89 96.3483 551.359 98.1263C549.826 99.9033 548.024 101.288 545.949 102.277C543.874 103.264 541.599 103.758 539.131 103.758C534.091 103.758 529.941 101.905 526.679 98.2003C523.419 94.4953 521.789 89.5783 521.789 83.4503C521.789 80.4873 522.233 77.7453 523.123 75.2243C524.012 72.7053 525.22 70.5563 526.755 68.7773C528.285 66.9973 530.112 65.6143 532.238 64.6263C534.362 63.6393 536.66 63.1453 539.131 63.1453C544.07 63.1453 548.173 64.9973 551.433 68.7033C554.695 72.4083 556.325 77.3243 556.325 83.4503C556.325 86.4163 555.881 89.1583 554.991 91.6763V91.6763ZM305.231 55.2133C301.673 51.5083 297.323 48.5423 292.186 46.3193C287.047 44.0983 281.166 42.9853 274.547 42.9853C267.926 42.9853 262.023 44.0983 256.833 46.3193C251.647 48.5423 247.273 51.5083 243.717 55.2133C240.158 58.9183 237.464 63.2193 235.637 68.1083C233.808 73.0003 232.895 78.1133 232.895 83.4503C232.895 88.7873 233.808 93.9003 235.637 98.7923C237.464 103.685 240.158 107.982 243.717 111.687C247.273 115.395 251.647 118.336 256.833 120.508C262.023 122.68 267.926 123.769 274.547 123.769C281.166 123.769 287.073 122.68 292.26 120.508C297.449 118.336 301.82 115.395 305.378 111.687C308.936 107.982 311.628 103.685 313.457 98.7923C315.285 93.9003 316.199 88.7873 316.199 83.4503C316.199 78.1133 315.259 73.0003 313.384 68.1083C311.505 63.2193 308.789 58.9183 305.231 55.2133V55.2133ZM290.407 91.6763C289.518 94.1973 288.306 96.3483 286.776 98.1263C285.242 99.9033 283.441 101.288 281.365 102.277C279.291 103.264 277.016 103.758 274.547 103.758C269.507 103.758 265.357 101.905 262.097 98.2003C258.836 94.4953 257.204 89.5783 257.204 83.4503C257.204 80.4873 257.649 77.7453 258.539 75.2243C259.428 72.7053 260.637 70.5563 262.17 68.7773C263.701 66.9973 265.529 65.6143 267.655 64.6263C269.779 63.6393 272.076 63.1453 274.547 63.1453C279.488 63.1453 283.589 64.9973 286.85 68.7033C290.111 72.4083 291.742 77.3243 291.742 83.4503C291.742 86.4163 291.297 89.1583 290.407 91.6763V91.6763ZM463.535 101.608C461.064 103.044 458.347 103.758 455.382 103.758C453.011 103.758 450.762 103.264 448.638 102.277C446.512 101.289 444.659 99.903 443.08 98.126C441.497 96.348 440.264 94.198 439.374 91.676C438.485 89.159 438.04 86.367 438.04 83.303C438.04 77.177 439.693 72.286 443.006 68.629C446.315 64.973 450.439 63.145 455.382 63.145C461.311 63.145 465.807 65.615 468.87 70.556L491.994 63.59C488.93 57.462 484.335 52.497 478.21 48.693C472.082 44.889 464.521 42.985 455.531 42.985C448.909 42.985 443.006 44.073 437.817 46.245C432.63 48.42 428.258 51.361 424.699 55.067C421.141 58.772 418.423 63.069 416.547 67.962C414.668 72.853 413.731 77.966 413.731 83.303C413.731 88.64 414.668 93.753 416.547 98.645C418.423 103.535 421.165 107.835 424.773 111.54C428.38 115.245 432.778 118.21 437.965 120.434C443.153 122.659 449.009 123.769 455.531 123.769C464.521 123.769 472.155 121.842 478.432 117.987C484.706 114.134 489.275 109.193 492.142 103.167L469.018 96.05C467.834 98.326 466.004 100.178 463.535 101.608V101.608Z" fill="#F56B2A"/>
</svg>
