<?xml version="1.0" encoding="UTF-8"?>
<svg width="198px" height="31px" viewBox="0 0 198 31" version="1.1" xmlns="http://www.w3.org/2000/svg" xmlns:xlink="http://www.w3.org/1999/xlink">
    <!-- Generator: Sketch 53.1 (72631) - https://sketchapp.com -->
    <title>Wordmark/Employer/Default</title>
    <desc>Created with Sketch.</desc>
    <g id="Logos" stroke="none" stroke-width="1" fill="none" fill-rule="evenodd">
        <g id="Wordmark/Employer/Default" transform="translate(-20.000000, -20.000000)">
            <g transform="translate(20.000000, 20.000000)">
                <g>
                    <path d="M189.761589,31 L180,18 L180,31 L173,31 L173,-3.94430453e-31 L184.955485,-3.94430453e-31 C189.998526,-3.94430453e-31 194.737245,4.66068966 194.737245,9.62068966 C194.737245,13.9106445 191.78098,16.8041379 188.216072,18.1724138 L198,31 L189.761589,31 Z M180,13 L183.571429,13 C185.787388,13 187,11.56 187,10 C187,8.44 185.741629,7 183.571429,7 L180,7 L180,13 Z" id="R" fill="#7046AE"></path>
                    <polygon id="E" fill="#7046AE" points="150 31 150 5 166.002 5 166.002 11 156 11 156 15 164 15 164 21 156 21 156 25 166.002 25 166.002 31"></polygon>
                    <polygon id="T" fill="#7046AE" points="125 5 125 11 131 11 131 31 137 31 137 11 143 11 143 5"></polygon>
                    <path d="M99,27 L102.5,23 C103.031628,23.4473297 105.318938,25 108.5,25 C110.660658,25 111.313141,24.1707245 111.313141,23.3813568 C111.313141,22.5619969 110.667689,21.8332515 108.387849,21.0234636 L106.37918,20.3093952 C102.679882,18.9948459 100.326391,16.5354899 100.326391,12.8815531 C100.326391,8.40123699 104.152923,5 109.5,5 C114.318797,5 116.701378,7.25049087 117,7.5 L114,12 C113.347852,11.5737286 111.493269,10.5 109.5,10.5 C107.634616,10.5 107,11.588062 107,12.4980365 C107,13.6830454 108.014906,14.1865305 109.980724,14.8846456 L112,15.5 C115.807097,16.8528372 118,19.6629688 118,22.9889063 C118,27.5540939 113.981658,31 108.5,31 C102.441854,31 99.5269408,27.4907226 99,27 Z" id="S" fill="#7046AE"></path>
                    <polygon id="N" fill="#7046AE" points="71 31 77 31 77 18 92 31 92 5 86.0262717 5 86 18 71 5"></polygon>
                    <path d="M38,17.9996809 C38,25.1795331 43.733194,31 51,31 C58.266806,31 64,25.1795331 64,17.9996809 C64,10.8204669 58.266806,5 51,5 C43.733194,5 38,10.8204669 38,17.9996809 Z M50.9996737,25 C47.0439607,25 44,21.8663467 44,18 C44,14.1342994 47.0439607,11 50.9996737,11 C54.9553867,11 58,14.1342994 58,18 C58,21.8663467 54.9553867,25 50.9996737,25" id="O" fill="#00B6B4"></path>
                    <polygon id="M" fill="#7046AE" points="31 0 15.5009606 14.5 0 0 0 31 7 31 7 16 15.4996798 23.5 24 16 24 31 31 31"></polygon>
                </g>
            </g>
        </g>
    </g>
</svg>