<svg width="696" height="434" viewBox="0 0 696 434" fill="none" xmlns="http://www.w3.org/2000/svg">
<g clip-path="url(#clip0)">
<path d="M181.899 264.498C255.027 264.498 314.31 205.288 314.31 132.249C314.31 59.2099 255.027 0 181.899 0C108.771 0 49.4886 59.2099 49.4886 132.249C49.4886 205.288 108.771 264.498 181.899 264.498Z" fill="#FFF9F9"/>
<path d="M0 31.7534C0 79.8708 30.2232 118.807 67.5733 118.807Z" fill="#34113F"/>
<path d="M67.5734 118.807C67.5734 70.1491 101.301 30.7756 142.981 30.7756Z" fill="#F15067"/>
<path d="M24.4832 36.1157C24.4832 81.8222 43.7559 118.807 67.5734 118.807Z" fill="#F15067"/>
<path d="M67.5734 118.807C67.5734 56.6328 106.557 6.32227 154.733 6.32227Z" fill="#34113F"/>
<path d="M53.3575 119.421C53.3575 119.421 62.9406 119.126 65.8286 117.072C68.7167 115.018 80.5697 112.565 81.2862 115.86C82.0026 119.154 95.6877 132.244 84.8685 132.331C74.0493 132.418 59.7295 130.648 56.847 128.894C53.9645 127.14 53.3575 119.421 53.3575 119.421Z" fill="#A8A8A8"/>
<path opacity="0.2" d="M85.0617 131.184C74.2425 131.271 59.9228 129.501 57.0402 127.747C54.845 126.412 53.9703 121.619 53.6776 119.408C53.4749 119.417 53.3577 119.421 53.3577 119.421C53.3577 119.421 53.9646 127.14 56.8472 128.894C59.7297 130.648 74.0494 132.418 84.8686 132.331C87.9917 132.306 89.0704 131.196 89.0112 129.552C88.5773 130.545 87.3862 131.165 85.0617 131.184Z" fill="black"/>
<path d="M123.465 279.362C187.666 279.362 239.712 272.29 239.712 263.567C239.712 254.843 187.666 247.771 123.465 247.771C59.2627 247.771 7.2168 254.843 7.2168 263.567C7.2168 272.29 59.2627 279.362 123.465 279.362Z" fill="#3F3D56"/>
<path opacity="0.1" d="M123.464 276.828C177.367 276.828 221.063 270.891 221.063 263.567C221.063 256.242 177.367 250.305 123.464 250.305C69.5624 250.305 25.8661 256.242 25.8661 263.567C25.8661 270.891 69.5624 276.828 123.464 276.828Z" fill="black"/>
<path d="M520.074 434C617.235 434 696 423.298 696 410.096C696 396.894 617.235 386.192 520.074 386.192C422.913 386.192 344.149 396.894 344.149 410.096C344.149 423.298 422.913 434 520.074 434Z" fill="#3F3D56"/>
<path d="M193.089 415.142C251.454 415.142 298.769 408.713 298.769 400.782C298.769 392.852 251.454 386.423 193.089 386.423C134.723 386.423 87.4091 392.852 87.4091 400.782C87.4091 408.713 134.723 415.142 193.089 415.142Z" fill="#3F3D56"/>
<path d="M287.579 388.675C343.527 402.956 451.072 370.049 462.883 332.795" stroke="#2F2E41" stroke-width="2" stroke-miterlimit="10"/>
<path d="M192.467 160.81C192.467 160.81 273.281 138.458 278.254 210.481C283.227 282.504 211.738 302.993 267.686 317.273" stroke="#2F2E41" stroke-width="2" stroke-miterlimit="10"/>
<path d="M114.39 333.592C114.39 333.592 138.679 326.874 140.174 348.521C141.668 370.168 120.182 376.326 136.997 380.618" stroke="#2F2E41" stroke-width="2" stroke-miterlimit="10"/>
<path d="M484.078 349.708L479.181 380.936C479.181 380.936 455.073 393.728 472.024 394.104C488.975 394.48 568.835 394.104 568.835 394.104C568.835 394.104 584.279 394.104 559.794 380.56L554.897 347.827L484.078 349.708Z" fill="#34113F"/>
<path opacity="0.1" d="M468.614 393.765C472.464 390.344 479.181 386.779 479.181 386.779L484.078 355.552L554.897 355.618L559.794 386.403C565.504 389.561 569.041 391.983 571.11 393.84C574.255 393.123 577.692 390.46 559.794 380.56L554.897 347.827L484.078 349.708L479.181 380.936C479.181 380.936 458.923 391.686 468.614 393.765Z" fill="black"/>
<path d="M667.424 132.056H370.798C364.603 132.056 359.58 137.072 359.58 143.26V342.831C359.58 349.019 364.603 354.035 370.798 354.035H667.424C673.619 354.035 678.642 349.019 678.642 342.831V143.26C678.642 137.072 673.619 132.056 667.424 132.056Z" fill="#34113F"/>
<path d="M667.906 143.907H370.316V310.203H667.906V143.907Z" fill="#FFF9F9"/>
<path d="M519.111 140.521C520.151 140.521 520.995 139.679 520.995 138.64C520.995 137.601 520.151 136.759 519.111 136.759C518.071 136.759 517.228 137.601 517.228 138.64C517.228 139.679 518.071 140.521 519.111 140.521Z" fill="#FFF9F9"/>
<path d="M678.642 323.372V342.831C678.642 344.302 678.352 345.759 677.788 347.119C677.225 348.478 676.398 349.713 675.357 350.754C674.315 351.794 673.078 352.62 671.717 353.183C670.356 353.746 668.897 354.035 667.424 354.035H370.798C369.325 354.035 367.866 353.746 366.505 353.183C365.144 352.62 363.907 351.794 362.866 350.754C361.824 349.713 360.998 348.478 360.434 347.119C359.87 345.759 359.58 344.302 359.58 342.831V323.372H678.642Z" fill="#34113F"/>
<path d="M602.361 414.421V418.184H399.698V415.174L399.977 414.421L404.972 400.876H598.217L602.361 414.421Z" fill="#34113F"/>
<path d="M680.352 410.738C679.983 412.314 678.589 413.977 675.44 415.55C664.139 421.193 641.161 414.045 641.161 414.045C641.161 414.045 623.456 411.035 623.456 403.134C623.953 402.794 624.471 402.486 625.008 402.212C629.759 399.702 645.512 393.507 673.445 402.475C675.503 403.12 677.341 404.323 678.755 405.95C679.886 407.273 680.774 408.952 680.352 410.738Z" fill="#34113F"/>
<path opacity="0.1" d="M680.352 410.738C666.52 416.031 654.19 416.426 641.537 407.649C635.156 403.224 629.359 402.129 625.008 402.212C629.759 399.701 645.512 393.506 673.445 402.474C675.503 403.119 677.341 404.323 678.755 405.95C679.886 407.273 680.774 408.952 680.352 410.738Z" fill="#34113F"/>
<path d="M663.009 407.649C665.713 407.649 667.906 406.975 667.906 406.144C667.906 405.313 665.713 404.639 663.009 404.639C660.304 404.639 658.112 405.313 658.112 406.144C658.112 406.975 660.304 407.649 663.009 407.649Z" fill="#FFF9F9"/>
<path d="M519.111 345.946C523.064 345.946 526.268 342.745 526.268 338.797C526.268 334.849 523.064 331.649 519.111 331.649C515.158 331.649 511.954 334.849 511.954 338.797C511.954 342.745 515.158 345.946 519.111 345.946Z" fill="#FFF9F9"/>
<path opacity="0.1" d="M602.361 414.421V418.183H399.698V415.173L399.977 414.421H602.361Z" fill="black"/>
<path d="M196.819 98.7209H67.5164V248.976H196.819V98.7209Z" fill="#2F2E41"/>
<path d="M209.873 83.8198H54.4618V137.216H209.873V83.8198Z" fill="#34113F"/>
<path d="M209.873 147.15H54.4618V200.546H209.873V147.15Z" fill="#34113F"/>
<path d="M209.873 210.481H54.4618V263.877H209.873V210.481Z" fill="#34113F"/>
<path opacity="0.4" d="M178.791 93.1331H168.845V103.067H178.791V93.1331Z" fill="#F15067"/>
<path opacity="0.8" d="M193.089 93.1331H183.142V103.067H193.089V93.1331Z" fill="#F15067"/>
<path d="M207.387 93.1331H197.44V103.067H207.387V93.1331Z" fill="#F15067"/>
<path opacity="0.4" d="M178.791 155.843H168.845V165.777H178.791V155.843Z" fill="#F15067"/>
<path opacity="0.8" d="M193.089 155.843H183.142V165.777H193.089V155.843Z" fill="#F15067"/>
<path d="M207.387 155.843H197.44V165.777H207.387V155.843Z" fill="#F15067"/>
<path opacity="0.4" d="M178.791 218.552H168.845V228.486H178.791V218.552Z" fill="#F15067"/>
<path opacity="0.8" d="M193.089 218.552H183.142V228.486H193.089V218.552Z" fill="#F15067"/>
<path d="M207.387 218.552H197.44V228.486H207.387V218.552Z" fill="#F15067"/>
<path d="M196.819 383.087C223.941 383.087 245.929 361.127 245.929 334.037C245.929 306.948 223.941 284.987 196.819 284.987C169.696 284.987 147.709 306.948 147.709 334.037C147.709 361.127 169.696 383.087 196.819 383.087Z" fill="#34113F"/>
<path d="M189.359 372.532H174.439V399.23H189.359V372.532Z" fill="#34113F"/>
<path d="M219.198 372.532H204.278V399.23H219.198V372.532Z" fill="#34113F"/>
<path d="M186.872 404.197C193.739 404.197 199.305 402.112 199.305 399.541C199.305 396.969 193.739 394.884 186.872 394.884C180.006 394.884 174.439 396.969 174.439 399.541C174.439 402.112 180.006 404.197 186.872 404.197Z" fill="#34113F"/>
<path d="M216.711 403.577C223.578 403.577 229.144 401.492 229.144 398.92C229.144 396.348 223.578 394.263 216.711 394.263C209.845 394.263 204.278 396.348 204.278 398.92C204.278 401.492 209.845 403.577 216.711 403.577Z" fill="#34113F"/>
<path d="M198.062 338.383C207.332 338.383 214.846 330.878 214.846 321.619C214.846 312.361 207.332 304.855 198.062 304.855C188.792 304.855 181.277 312.361 181.277 321.619C181.277 330.878 188.792 338.383 198.062 338.383Z" fill="#FFF9F9"/>
<path d="M198.062 327.207C201.152 327.207 203.657 324.706 203.657 321.619C203.657 318.533 201.152 316.031 198.062 316.031C194.972 316.031 192.467 318.533 192.467 321.619C192.467 324.706 194.972 327.207 198.062 327.207Z" fill="#3F3D56"/>
<path d="M149.18 288.422C145.215 270.685 157.891 252.762 177.492 248.39C197.094 244.019 216.199 254.854 220.165 272.591C224.13 290.328 211.139 296.87 191.537 301.242C171.936 305.613 153.146 306.159 149.18 288.422Z" fill="#F15067"/>
<path d="M242.879 324.254C255.346 318.925 264.095 311.435 262.42 307.526C260.745 303.617 249.28 304.768 236.813 310.098C224.345 315.428 215.597 322.917 217.272 326.826C218.947 330.735 230.412 329.584 242.879 324.254Z" fill="#34113F"/>
<path d="M150.875 357.161C163.343 351.832 172.092 344.342 170.416 340.433C168.741 336.524 157.276 337.675 144.809 343.005C132.342 348.335 123.593 355.824 125.268 359.733C126.943 363.642 138.408 362.491 150.875 357.161Z" fill="#34113F"/>
<path d="M225.414 348.318C225.414 353.118 213.038 362.598 199.305 362.598C185.572 362.598 172.574 353.739 172.574 348.939C172.574 344.138 185.572 345.213 199.305 345.213C213.038 345.213 225.414 343.517 225.414 348.318Z" fill="#FFF9F9"/>
</g>
<defs>
<clipPath id="clip0">
<rect width="696" height="434" fill="white"/>
</clipPath>
</defs>
</svg>
