<svg width="628" height="499" viewBox="0 0 628 499" fill="none" xmlns="http://www.w3.org/2000/svg">
<g clip-path="url(#clip0)">
<path d="M335.567 105.71C358.335 105.71 376.791 87.2356 376.791 64.4466C376.791 41.6575 358.335 23.1833 335.567 23.1833C312.8 23.1833 294.344 41.6575 294.344 64.4466C294.344 87.2356 312.8 105.71 335.567 105.71Z" fill="#F14668"/>
<path d="M211.442 263.035C211.442 342.731 164.109 370.558 105.721 370.558C47.333 370.558 0 342.731 0 263.035C0 183.339 105.721 81.9526 105.721 81.9526C105.721 81.9526 211.442 183.339 211.442 263.035Z" fill="#FFF9F9"/>
<path d="M101.87 358.367L102.952 291.668L148.013 209.153L103.122 281.205L103.609 251.215L134.665 191.516L103.737 243.278L104.613 189.34L137.868 141.811L104.751 180.858L105.298 81.9526L101.86 212.885L102.143 207.484L68.3319 155.681L101.601 217.852L98.4505 278.093L98.3564 276.494L59.3785 221.979L98.2386 282.142L97.8444 289.676L97.7742 289.79L97.8064 290.408L89.8134 443.243H100.492L101.774 364.301L140.538 304.285L101.87 358.367Z" fill="#34113F"/>
<path d="M524.734 221.224C524.734 318.586 466.909 352.582 395.577 352.582C324.246 352.582 266.42 318.586 266.42 221.224C266.42 123.861 395.577 0 395.577 0C395.577 0 524.734 123.861 524.734 221.224Z" fill="#FFF9F9"/>
<path d="M390.872 337.689L392.194 256.205L447.245 155.397L392.402 243.422L392.997 206.784L430.937 133.851L393.154 197.088L394.223 131.192L434.851 73.1281L394.392 120.83L395.06 0L390.86 159.957L391.206 153.358L349.9 90.0725L390.544 166.025L386.694 239.619L386.58 237.666L338.961 171.068L386.436 244.567L385.954 253.771L385.868 253.909L385.908 254.665L376.143 441.38H389.189L390.755 344.938L438.112 271.618L390.872 337.689Z" fill="#34113F"/>
<path d="M257.628 448.71C367.196 448.71 456.019 445.535 456.019 441.618C456.019 437.701 367.196 434.526 257.628 434.526C148.061 434.526 59.2382 437.701 59.2382 441.618C59.2382 445.535 148.061 448.71 257.628 448.71Z" fill="#34113F"/>
<path d="M536.534 499C587.049 499 628 495.103 628 490.296C628 485.489 587.049 481.592 536.534 481.592C486.019 481.592 445.069 485.489 445.069 490.296C445.069 495.103 486.019 499 536.534 499Z" fill="#34113F"/>
<path d="M269.223 223.697H246.034V441.618H269.223V223.697Z" fill="#34113F"/>
<path d="M363.909 273.342H221.557V233.368H363.909L405.133 253.355L363.909 273.342Z" fill="#34113F"/>
<path opacity="0.1" d="M363.909 270.118H221.557V273.342H363.909L405.133 253.355L401.809 251.743L363.909 270.118Z" fill="black"/>
<path d="M151.992 326.21H294.344V286.237H151.992L110.768 306.223L151.992 326.21Z" fill="#34113F"/>
<path opacity="0.1" d="M114.092 304.612L110.768 306.223L151.992 326.21H294.344V322.987H151.992L114.092 304.612Z" fill="black"/>
<path d="M325.906 241.105H301.429V265.605H325.906V241.105Z" fill="#F14668"/>
<path d="M202.878 318.473C209.637 318.473 215.116 312.989 215.116 306.223C215.116 299.458 209.637 293.973 202.878 293.973C196.119 293.973 190.64 299.458 190.64 306.223C190.64 312.989 196.119 318.473 202.878 318.473Z" fill="#F14668"/>
<path d="M257.628 259.157C261.542 259.157 264.714 255.982 264.714 252.065C264.714 248.148 261.542 244.973 257.628 244.973C253.715 244.973 250.543 248.148 250.543 252.065C250.543 255.982 253.715 259.157 257.628 259.157Z" fill="#34113F"/>
<path d="M257.628 312.026C261.542 312.026 264.714 308.851 264.714 304.934C264.714 301.017 261.542 297.842 257.628 297.842C253.715 297.842 250.543 301.017 250.543 304.934C250.543 308.851 253.715 312.026 257.628 312.026Z" fill="#34113F"/>
<path d="M209.963 417.335C209.963 431.821 201.36 436.879 190.747 436.879C190.501 436.879 190.255 436.877 190.01 436.871C189.518 436.861 189.031 436.837 188.55 436.804C178.972 436.126 171.53 430.808 171.53 417.335C171.53 403.392 189.33 385.799 190.667 384.497L190.669 384.495C190.721 384.445 190.747 384.42 190.747 384.42C190.747 384.42 209.963 402.849 209.963 417.335Z" fill="#FFF9F9"/>
<path d="M190.046 434.663L197.075 424.833L190.029 435.743L190.01 436.871C189.518 436.861 189.031 436.837 188.55 436.805L189.308 422.311L189.302 422.199L189.315 422.178L189.386 420.809L182.323 409.872L189.408 419.782L189.425 420.073L189.997 409.122L183.95 397.821L190.071 407.2L190.667 384.497L190.669 384.42V384.495L190.57 402.397L196.59 395.3L190.545 403.94L190.386 413.744L196.007 404.335L190.363 415.187L190.274 420.638L198.434 407.541L190.243 422.54L190.046 434.663Z" fill="#34113F"/>
<path d="M506.93 474.445C506.93 474.445 497.81 482.132 493.01 481.652C488.21 481.171 479.09 481.171 482.93 486.456C486.77 491.741 502.61 494.624 509.33 495.105C516.051 495.585 530.931 496.066 529.971 493.183C529.011 490.3 528.051 476.847 524.211 475.886C520.371 474.925 506.93 474.445 506.93 474.445Z" fill="#FFF9F9"/>
<path d="M559.276 466.897C559.276 466.897 552.555 476.755 547.802 477.583C543.05 478.412 534.265 480.865 539.383 484.923C544.501 488.981 560.533 487.496 567.135 486.151C573.736 484.806 588.198 481.266 586.5 478.747C584.801 476.229 580.264 463.529 576.307 463.636C572.35 463.744 559.276 466.897 559.276 466.897Z" fill="#FFF9F9"/>
<path d="M501.588 325.912C501.588 325.912 495.41 368.261 496.85 375.949C498.29 383.636 499.25 395.648 499.25 395.648C499.25 395.648 498.29 405.738 499.25 410.542C500.21 415.347 505.97 460.991 505.97 461.952C505.97 462.913 505.01 465.796 505.97 468.198C506.93 470.601 508.85 468.679 505.97 472.523C503.09 476.366 505.01 477.327 505.49 477.327C505.97 477.327 524.691 479.249 525.651 477.327C526.611 475.405 525.171 474.925 525.651 472.523C526.131 470.12 526.611 469.64 527.571 469.159C528.531 468.679 530.451 469.64 529.011 467.237C527.571 464.835 524.211 461.952 525.171 460.511C526.131 459.07 524.691 448.499 524.691 448.499C524.691 448.499 523.731 424.956 523.251 410.542C522.771 396.128 527.571 381.234 527.571 381.234C528.169 393.028 532.545 404.315 540.051 413.425C552.531 428.32 558.772 456.187 558.772 456.187C558.772 456.187 561.652 460.511 560.212 464.355C558.772 468.198 554.451 465.796 558.772 468.198C563.092 470.601 577.972 467.238 579.412 465.796C580.852 464.355 577.492 462.433 578.452 458.589C579.412 454.745 583.252 455.706 579.892 453.784C576.532 451.863 575.572 452.343 575.572 450.421C575.572 448.499 566.932 406.699 553.491 394.687L552.531 350.964C552.531 350.964 564.532 320.215 552.051 317.332C539.571 314.449 501.588 325.912 501.588 325.912Z" fill="#34113F"/>
<path d="M510.291 212.109C510.291 212.109 518.451 232.289 516.531 235.172C514.611 238.054 540.051 225.562 540.051 225.562C540.051 225.562 531.891 205.383 531.891 202.98C531.891 200.578 510.291 212.109 510.291 212.109Z" fill="#A0616A"/>
<path d="M516.291 217.154C526.099 217.154 534.051 209.195 534.051 199.377C534.051 189.559 526.099 181.6 516.291 181.6C506.482 181.6 498.53 189.559 498.53 199.377C498.53 209.195 506.482 217.154 516.291 217.154Z" fill="#A0616A"/>
<path d="M540.051 217.394C540.051 217.394 527.571 215.953 521.331 223.641C515.091 231.328 514.131 233.25 514.131 233.25C514.131 233.25 499.25 257.273 502.13 269.285C502.832 270.369 503.473 271.492 504.05 272.648C505.01 274.57 505.01 301.476 504.05 305.8C503.09 310.125 502.13 311.566 503.09 317.812C504.05 324.058 495.41 334.148 505.49 336.07C515.571 337.992 523.251 336.55 526.611 332.226C529.971 327.902 527.091 325.019 537.651 325.019C548.211 325.019 554.931 317.812 554.931 317.812C554.931 317.812 549.651 312.046 551.571 311.086C553.491 310.125 551.571 307.722 550.611 305.32C549.651 302.918 549.651 300.996 551.091 300.996C552.531 300.996 551.571 300.035 550.611 297.632C549.651 295.23 567.412 253.91 556.852 241.898C546.291 229.887 541.011 223.16 541.011 223.16C541.011 223.16 542.931 215.953 540.051 217.394Z" fill="#F14668"/>
<path d="M512.691 263.039V284.179L497.33 335.109C497.33 335.109 487.25 361.535 497.33 361.535C507.411 361.535 506.87 336.312 506.87 336.312L528.531 298.113C528.531 298.113 537.171 267.843 536.211 265.441C535.251 263.039 512.691 263.039 512.691 263.039Z" fill="#A0616A"/>
<path d="M520.851 231.808C520.851 231.808 506.45 237.574 510.29 252.949C514.131 268.324 510.29 267.843 510.29 267.843C510.29 267.843 529.971 265.922 536.211 270.246L537.651 264.48C537.651 264.48 543.411 231.328 520.851 231.808Z" fill="#F14668"/>
<path d="M510.226 186.031C509.118 186.425 507.929 186.536 506.767 186.355C505.605 186.174 504.506 185.706 503.57 184.994C501.76 183.502 500.993 180.749 502.057 178.658C502.976 176.853 504.942 175.862 506.827 175.123C510.986 173.495 515.366 172.505 519.82 172.187C521.943 172.036 524.173 172.06 526.068 173.031C527.006 173.511 527.82 174.204 528.749 174.702C530.456 175.617 532.443 175.821 534.288 176.41C536.176 177.026 537.91 178.041 539.372 179.386C540.834 180.731 541.99 182.375 542.762 184.206C543.264 185.449 543.614 186.749 543.806 188.076C544.358 191.71 543.972 195.425 542.686 198.868C540.64 204.321 536.348 209.088 536.106 214.908C533.479 213 532.505 209.558 530.4 207.085C528.834 205.258 526.695 204.016 524.333 203.563C523.679 203.523 523.051 203.294 522.525 202.903C522.158 202.465 521.929 201.928 521.864 201.361L520.067 192.867C519.701 191.138 519.239 189.253 517.82 188.203C516.936 187.637 515.933 187.284 514.89 187.17C512.412 186.736 509.902 186.507 507.386 186.485" fill="#2F2E41"/>
</g>
<defs>
<clipPath id="clip0">
<rect width="628" height="499" fill="white"/>
</clipPath>
</defs>
</svg>
