<svg width="358" height="215" viewBox="0 0 358 215" fill="none" xmlns="http://www.w3.org/2000/svg">
<rect x="-33" width="413" height="210" fill="#E7E2E8"/>
<g clip-path="url(#clip0)">
<path d="M19.7827 208.284L19.0688 208.123C27.0287 172.826 47.0327 140.773 75.3957 117.869C96.8391 100.579 122.343 89.0158 149.505 84.2674C176.668 79.519 204.595 81.7419 230.658 90.7268C256.721 99.7116 280.062 115.163 298.484 135.625C316.905 156.088 329.8 180.889 335.955 207.693L335.242 207.854C318.392 134.084 253.552 82.5609 177.561 82.5609C102.566 82.5609 36.211 135.435 19.7827 208.284Z" fill="#34113F"/>
<path d="M296.153 122.042C307.129 122.042 316.026 113.17 316.026 102.226C316.026 91.2822 307.129 82.4105 296.153 82.4105C285.178 82.4105 276.281 91.2822 276.281 102.226C276.281 113.17 285.178 122.042 296.153 122.042Z" fill="#F14668"/>
<path d="M288.604 181.449H287.872V210.27H288.604V181.449Z" fill="#34113F"/>
<path d="M295.357 185.122C295.404 195.2 288.293 203.403 288.293 203.403C288.293 203.403 281.107 195.266 281.06 185.188C281.014 175.11 288.125 166.907 288.125 166.907C288.125 166.907 295.311 175.044 295.357 185.122Z" fill="#F4D160"/>
<path opacity="0.1" d="M295.357 185.122C295.404 195.2 288.293 203.403 288.293 203.403C288.293 203.403 281.107 195.266 281.06 185.188C281.014 175.11 288.125 166.907 288.125 166.907C288.125 166.907 295.311 175.044 295.357 185.122Z" fill="black"/>
<path opacity="0.4" d="M150.311 124.147C156.626 124.147 161.744 119.043 161.744 112.747C161.744 106.451 156.626 101.347 150.311 101.347C143.997 101.347 138.879 106.451 138.879 112.747C138.879 119.043 143.997 124.147 150.311 124.147Z" fill="#F4D160"/>
<path opacity="0.4" d="M129.152 126.189C133.581 126.189 137.172 122.609 137.172 118.192C137.172 113.775 133.581 110.195 129.152 110.195C124.723 110.195 121.132 113.775 121.132 118.192C121.132 122.609 124.723 126.189 129.152 126.189Z" fill="#F4D160"/>
<path opacity="0.4" d="M43.1714 149.173C47.6008 149.173 51.1915 145.593 51.1915 141.176C51.1915 136.759 47.6008 133.179 43.1714 133.179C38.7421 133.179 35.1514 136.759 35.1514 141.176C35.1514 145.593 38.7421 149.173 43.1714 149.173Z" fill="#F4D160"/>
<path opacity="0.4" d="M280.303 123.209C286.618 123.209 291.736 118.105 291.736 111.809C291.736 105.513 286.618 100.409 280.303 100.409C273.989 100.409 268.871 105.513 268.871 111.809C268.871 118.105 273.989 123.209 280.303 123.209Z" fill="#F4D160"/>
<path d="M211.635 207.066C212.255 209.35 214.378 210.765 214.378 210.765C214.378 210.765 215.496 208.476 214.876 206.191C214.256 203.907 212.134 202.492 212.134 202.492C212.134 202.492 211.016 204.781 211.635 207.066Z" fill="#34113F"/>
<path d="M212.546 206.575C214.247 208.225 214.454 210.763 214.454 210.763C214.454 210.763 211.905 210.624 210.204 208.974C208.503 207.323 208.296 204.785 208.296 204.785C208.296 204.785 210.845 204.924 212.546 206.575Z" fill="#F4D160"/>
<path d="M-8.07037 189.894L-9.584 187.378L4.5439 175.303H40.8731V178.825L27.7543 192.912L12.6169 195.931L-8.07037 189.894Z" fill="#34113F"/>
<path d="M47.1266 182.389V174.517H42.3703V177L40.8731 175.303L28.7634 187.378L26.7448 189.39L24.2221 199.453L28.7634 210.521H51.9734V187.881L47.1266 182.389Z" fill="#CCCCCC"/>
<path d="M28.7633 187.378H-9.584V210.522H28.7633V187.378Z" fill="#F2F2F2"/>
<path d="M23.4653 194.673H15.3922V201.717H23.4653V194.673Z" fill="#34113F"/>
<path d="M12.1125 194.422H5.04852V210.522H12.1125V194.422Z" fill="#CCCCCC"/>
<path d="M39.6116 197.189V194.673H36.584V197.189H39.3591H39.6116Z" fill="#34113F"/>
<path d="M39.3591 199.201H36.584V201.717H39.6116V199.201H39.3591Z" fill="#34113F"/>
<path d="M44.6573 194.673H41.6298V197.189H44.6573V194.673Z" fill="#34113F"/>
<path d="M44.6573 199.201H41.6298V201.717H44.6573V199.201Z" fill="#34113F"/>
<path d="M137.914 189.894L136.4 187.378L150.528 175.303H186.857V178.825L173.738 192.912L158.601 195.931L137.914 189.894Z" fill="#34113F"/>
<path d="M193.111 182.389V174.517H188.354V177L186.857 175.303L174.748 187.378L172.729 189.39L170.206 199.453L174.748 210.521H197.958V187.881L193.111 182.389Z" fill="#CCCCCC"/>
<path d="M174.747 187.378H136.4V210.522H174.747V187.378Z" fill="#F2F2F2"/>
<path d="M169.449 194.673H161.376V201.717H169.449V194.673Z" fill="#34113F"/>
<path d="M158.097 194.422H151.033V210.522H158.097V194.422Z" fill="#CCCCCC"/>
<path d="M142.96 196.937V194.422H139.932V196.937H142.707H142.96Z" fill="#34113F"/>
<path d="M142.707 198.95H139.932V201.465H142.96V198.95H142.707Z" fill="#34113F"/>
<path d="M148.005 194.422H144.978V196.937H148.005V194.422Z" fill="#34113F"/>
<path d="M148.005 198.95H144.978V201.465H148.005V198.95Z" fill="#34113F"/>
<path d="M185.596 197.189V194.673H182.568V197.189H185.343H185.596Z" fill="#34113F"/>
<path d="M185.343 199.201H182.568V201.717H185.596V199.201H185.343Z" fill="#34113F"/>
<path d="M190.641 194.673H187.614V197.189H190.641V194.673Z" fill="#34113F"/>
<path d="M190.641 199.201H187.614V201.717H190.641V199.201Z" fill="#34113F"/>
<path d="M69.6335 147.631L67.1108 145.619L81.2387 133.041H117.063V144.109L93.8529 159.706L69.6335 147.631Z" fill="#34113F"/>
<path d="M123.595 140.096V133.292H118.838V134.959L117.063 133.041L105.458 145.619L100.917 148.638L93.8756 199.933L104.494 210.521H129.173V146.122L123.595 140.096Z" fill="#CCCCCC"/>
<path d="M105.458 145.619H67.1106V210.522H105.458V145.619Z" fill="#F2F2F2"/>
<path d="M89.0594 194.673H81.9954V210.522H89.0594V194.673Z" fill="#CCCCCC"/>
<path d="M74.4268 199.201V196.686H71.3995V199.201H74.1747H74.4268Z" fill="#34113F"/>
<path d="M74.1747 201.214H71.3995V203.73H74.4268V201.214H74.1747Z" fill="#34113F"/>
<path d="M79.4726 196.686H76.4451V199.201H79.4726V196.686Z" fill="#34113F"/>
<path d="M79.4726 201.214H76.4451V203.729H79.4726V201.214Z" fill="#34113F"/>
<path d="M95.1141 199.201V196.686H92.0869V199.201H94.862H95.1141Z" fill="#34113F"/>
<path d="M94.862 201.214H92.0869V203.73H95.1141V201.214H94.862Z" fill="#34113F"/>
<path d="M100.16 196.686H97.1325V199.201H100.16V196.686Z" fill="#34113F"/>
<path d="M100.16 201.214H97.1325V203.729H100.16V201.214Z" fill="#34113F"/>
<path d="M116.306 148.889V146.374H113.279V148.889H116.054H116.306Z" fill="#34113F"/>
<path d="M116.054 150.902H113.279V153.417H116.306V150.902H116.054Z" fill="#34113F"/>
<path d="M121.352 146.374H118.324V148.889H121.352V146.374Z" fill="#34113F"/>
<path d="M121.352 150.902H118.324V153.417H121.352V150.902Z" fill="#34113F"/>
<path d="M116.306 162.977V160.461H113.279V162.977H116.054H116.306Z" fill="#34113F"/>
<path d="M116.054 164.989H113.279V167.505H116.306V164.989H116.054Z" fill="#34113F"/>
<path d="M121.352 160.461H118.324V162.977H121.352V160.461Z" fill="#34113F"/>
<path d="M121.352 164.989H118.324V167.505H121.352V164.989Z" fill="#34113F"/>
<path d="M116.306 177.064V174.548H113.279V177.064H116.054H116.306Z" fill="#34113F"/>
<path d="M116.054 179.077H113.279V181.592H116.306V179.077H116.054Z" fill="#34113F"/>
<path d="M121.352 174.548H118.324V177.064H121.352V174.548Z" fill="#34113F"/>
<path d="M121.352 179.076H118.324V181.592H121.352V179.076Z" fill="#34113F"/>
<path d="M116.306 191.151V188.636H113.279V191.151H116.054H116.306Z" fill="#34113F"/>
<path d="M116.054 193.164H113.279V195.679H116.306V193.164H116.054Z" fill="#34113F"/>
<path d="M121.352 188.636H118.324V191.151H121.352V188.636Z" fill="#34113F"/>
<path d="M121.352 193.164H118.324V195.679H121.352V193.164Z" fill="#34113F"/>
<path d="M100.664 148.889H71.3994V154.927H100.664V148.889Z" fill="#34113F"/>
<path d="M100.664 160.964H71.3994V167.002H100.664V160.964Z" fill="#34113F"/>
<path d="M100.664 173.039H71.3994V179.076H100.664V173.039Z" fill="#34113F"/>
<path d="M100.664 185.114H71.3994V191.151H100.664V185.114Z" fill="#34113F"/>
<path d="M217.081 147.631L214.558 145.619L228.686 133.041H264.511V144.109L241.301 159.706L217.081 147.631Z" fill="#34113F"/>
<path d="M271.042 140.096V133.292H266.286V134.959L264.511 133.041L252.905 145.619L248.365 148.638L241.323 199.933L251.942 210.521H276.62V146.122L271.042 140.096Z" fill="#CCCCCC"/>
<path d="M252.906 145.619H214.558V210.522H252.906V145.619Z" fill="#F2F2F2"/>
<path d="M236.507 194.673H229.443V210.522H236.507V194.673Z" fill="#CCCCCC"/>
<path d="M221.874 199.201V196.686H218.847V199.201H221.622H221.874Z" fill="#34113F"/>
<path d="M221.622 201.214H218.847V203.73H221.874V201.214H221.622Z" fill="#34113F"/>
<path d="M226.92 196.686H223.893V199.201H226.92V196.686Z" fill="#34113F"/>
<path d="M226.92 201.214H223.893V203.729H226.92V201.214Z" fill="#34113F"/>
<path d="M242.562 199.201V196.686H239.535V199.201H242.31H242.562Z" fill="#34113F"/>
<path d="M242.31 201.214H239.535V203.73H242.562V201.214H242.31Z" fill="#34113F"/>
<path d="M247.608 196.686H244.58V199.201H247.608V196.686Z" fill="#34113F"/>
<path d="M247.608 201.214H244.58V203.729H247.608V201.214Z" fill="#34113F"/>
<path d="M263.754 148.889V146.374H260.726V148.889H263.502H263.754Z" fill="#34113F"/>
<path d="M263.502 150.902H260.726V153.417H263.754V150.902H263.502Z" fill="#34113F"/>
<path d="M268.799 146.374H265.772V148.889H268.799V146.374Z" fill="#34113F"/>
<path d="M268.799 150.902H265.772V153.417H268.799V150.902Z" fill="#34113F"/>
<path d="M263.754 162.977V160.461H260.726V162.977H263.502H263.754Z" fill="#34113F"/>
<path d="M263.502 164.989H260.726V167.505H263.754V164.989H263.502Z" fill="#34113F"/>
<path d="M268.799 160.461H265.772V162.977H268.799V160.461Z" fill="#34113F"/>
<path d="M268.799 164.989H265.772V167.505H268.799V164.989Z" fill="#34113F"/>
<path d="M263.754 177.064V174.548H260.726V177.064H263.502H263.754Z" fill="#34113F"/>
<path d="M263.502 179.077H260.726V181.592H263.754V179.077H263.502Z" fill="#34113F"/>
<path d="M268.799 174.548H265.772V177.064H268.799V174.548Z" fill="#34113F"/>
<path d="M268.799 179.076H265.772V181.592H268.799V179.076Z" fill="#34113F"/>
<path d="M263.754 191.151V188.636H260.726V191.151H263.502H263.754Z" fill="#34113F"/>
<path d="M263.502 193.164H260.726V195.679H263.754V193.164H263.502Z" fill="#34113F"/>
<path d="M268.799 188.636H265.772V191.151H268.799V188.636Z" fill="#34113F"/>
<path d="M268.799 193.164H265.772V195.679H268.799V193.164Z" fill="#34113F"/>
<path d="M248.112 148.889H218.847V154.927H248.112V148.889Z" fill="#34113F"/>
<path d="M248.112 160.964H218.847V167.002H248.112V160.964Z" fill="#34113F"/>
<path d="M248.112 173.039H218.847V179.076H248.112V173.039Z" fill="#34113F"/>
<path d="M248.112 185.114H218.847V191.151H248.112V185.114Z" fill="#34113F"/>
<path d="M297.939 147.631L295.417 145.619L309.545 133.041H345.369V144.109L322.159 159.706L297.939 147.631Z" fill="#34113F"/>
<path d="M351.901 140.096V133.292H347.144V134.959L345.369 133.041L333.764 145.619L329.223 148.638L322.182 199.933L332.8 210.521H357.479V146.122L351.901 140.096Z" fill="#CCCCCC"/>
<path d="M333.764 145.619H295.417V210.522H333.764V145.619Z" fill="#F2F2F2"/>
<path d="M317.365 194.673H310.301V210.522H317.365V194.673Z" fill="#CCCCCC"/>
<path d="M302.733 199.201V196.686H299.706V199.201H302.481H302.733Z" fill="#34113F"/>
<path d="M302.481 201.214H299.706V203.73H302.733V201.214H302.481Z" fill="#34113F"/>
<path d="M307.779 196.686H304.751V199.201H307.779V196.686Z" fill="#34113F"/>
<path d="M307.779 201.214H304.751V203.729H307.779V201.214Z" fill="#34113F"/>
<path d="M323.42 199.201V196.686H320.393V199.201H323.168H323.42Z" fill="#34113F"/>
<path d="M323.168 201.214H320.393V203.73H323.42V201.214H323.168Z" fill="#34113F"/>
<path d="M328.466 196.686H325.439V199.201H328.466V196.686Z" fill="#34113F"/>
<path d="M328.466 201.214H325.439V203.729H328.466V201.214Z" fill="#34113F"/>
<path d="M344.612 148.889V146.374H341.585V148.889H344.36H344.612Z" fill="#34113F"/>
<path d="M344.36 150.902H341.585V153.417H344.612V150.902H344.36Z" fill="#34113F"/>
<path d="M349.658 146.374H346.63V148.889H349.658V146.374Z" fill="#34113F"/>
<path d="M349.658 150.902H346.63V153.417H349.658V150.902Z" fill="#34113F"/>
<path d="M344.612 162.977V160.461H341.585V162.977H344.36H344.612Z" fill="#34113F"/>
<path d="M344.36 164.989H341.585V167.505H344.612V164.989H344.36Z" fill="#34113F"/>
<path d="M349.658 160.461H346.63V162.977H349.658V160.461Z" fill="#34113F"/>
<path d="M349.658 164.989H346.63V167.505H349.658V164.989Z" fill="#34113F"/>
<path d="M344.612 177.064V174.548H341.585V177.064H344.36H344.612Z" fill="#34113F"/>
<path d="M344.36 179.077H341.585V181.592H344.612V179.077H344.36Z" fill="#34113F"/>
<path d="M349.658 174.548H346.63V177.064H349.658V174.548Z" fill="#34113F"/>
<path d="M349.658 179.076H346.63V181.592H349.658V179.076Z" fill="#34113F"/>
<path d="M344.612 191.151V188.636H341.585V191.151H344.36H344.612Z" fill="#34113F"/>
<path d="M344.36 193.164H341.585V195.679H344.612V193.164H344.36Z" fill="#34113F"/>
<path d="M349.658 188.636H346.63V191.151H349.658V188.636Z" fill="#34113F"/>
<path d="M349.658 193.164H346.63V195.679H349.658V193.164Z" fill="#34113F"/>
<path d="M328.97 148.889H299.706V154.927H328.97V148.889Z" fill="#34113F"/>
<path d="M328.97 160.964H299.706V167.002H328.97V160.964Z" fill="#34113F"/>
<path d="M328.97 173.039H299.706V179.076H328.97V173.039Z" fill="#34113F"/>
<path d="M328.97 185.114H299.706V191.151H328.97V185.114Z" fill="#34113F"/>
<path d="M59.9323 181.449H59.2005V210.27H59.9323V181.449Z" fill="#34113F"/>
<path d="M66.6855 185.122C66.7321 195.2 59.6212 203.403 59.6212 203.403C59.6212 203.403 52.4348 195.266 52.3883 185.188C52.3417 175.11 59.4525 166.907 59.4525 166.907C59.4525 166.907 66.6389 175.044 66.6855 185.122Z" fill="#F4D160"/>
<path d="M133.107 181.449H132.376V210.27H133.107V181.449Z" fill="#34113F"/>
<path d="M139.861 185.122C139.907 195.2 132.796 203.403 132.796 203.403C132.796 203.403 125.61 195.266 125.563 185.188C125.517 175.11 132.628 166.907 132.628 166.907C132.628 166.907 139.814 175.044 139.861 185.122Z" fill="#F4D160"/>
<path d="M279.092 181.449H278.36V210.27H279.092V181.449Z" fill="#34113F"/>
<path d="M285.845 185.122C285.891 195.2 278.78 203.403 278.78 203.403C278.78 203.403 271.594 195.266 271.547 185.188C271.501 175.11 278.612 166.907 278.612 166.907C278.612 166.907 285.798 175.044 285.845 185.122Z" fill="#F4D160"/>
<path d="M181.952 84.7681C189.63 84.7681 195.855 83.3716 195.855 81.6489C195.855 79.9261 189.63 78.5296 181.952 78.5296C174.273 78.5296 168.048 79.9261 168.048 81.6489C168.048 83.3716 174.273 84.7681 181.952 84.7681Z" fill="#F4D160"/>
<path d="M197.684 38.0523C197.684 46.9177 181.586 71.981 181.586 71.981C181.586 71.981 165.487 46.9177 165.487 38.0523C165.487 33.795 167.183 29.712 170.202 26.7016C173.221 23.6912 177.316 22 181.586 22C185.855 22 189.95 23.6912 192.969 26.7016C195.988 29.712 197.684 33.795 197.684 38.0523Z" fill="#F4D160"/>
<path d="M181.586 47.173C186.637 47.173 190.733 43.0895 190.733 38.0523C190.733 33.0151 186.637 28.9317 181.586 28.9317C176.534 28.9317 172.439 33.0151 172.439 38.0523C172.439 43.0895 176.534 47.173 181.586 47.173Z" fill="#E7E2E8"/>
</g>
<defs>
<clipPath id="clip0">
<rect width="416" height="189" fill="white" transform="translate(-33 22)"/>
</clipPath>
</defs>
</svg>
