<svg width="482" height="375" viewBox="0 0 482 375" fill="none" xmlns="http://www.w3.org/2000/svg">
<g clip-path="url(#clip0)">
<path d="M207.547 183.364C196.701 183.364 187.909 174.556 187.909 163.69C187.909 152.825 196.701 144.017 207.547 144.017C218.393 144.017 227.185 152.825 227.185 163.69C227.185 174.556 218.393 183.364 207.547 183.364Z" fill="#FFF9F9"/>
<path d="M159.417 188.972L179.94 168.413C178.366 165.961 177.3 163.219 176.805 160.347C176.309 157.476 176.394 154.534 177.054 151.696C177.714 148.858 178.935 146.181 180.647 143.825C182.358 141.468 184.524 139.48 187.017 137.978C191.71 135.169 197.285 134.228 202.638 135.342C207.991 136.456 212.731 139.543 215.919 143.992C218.853 148.113 220.262 153.13 219.904 158.179C219.547 163.228 217.444 167.994 213.958 171.659C210.472 175.323 205.821 177.656 200.804 178.257C195.787 178.859 190.718 177.69 186.468 174.953L165.945 195.512C165.079 196.378 163.905 196.865 162.682 196.865C161.458 196.864 160.284 196.377 159.419 195.51C158.553 194.643 158.067 193.467 158.067 192.241C158.066 191.015 158.552 189.839 159.417 188.972ZM187.234 167.645C189.777 170.193 193.123 171.778 196.702 172.131C200.281 172.484 203.871 171.583 206.861 169.582C209.851 167.58 212.056 164.602 213.1 161.155C214.144 157.707 213.962 154.004 212.586 150.675C211.21 147.347 208.724 144.599 205.553 142.901C202.381 141.203 198.72 140.659 195.193 141.362C191.666 142.064 188.491 143.971 186.21 146.755C183.928 149.54 182.681 153.032 182.681 156.634C182.679 158.68 183.08 160.705 183.861 162.595C184.642 164.484 185.788 166.201 187.234 167.645Z" fill="#34113F"/>
<path d="M10.653 219.298C-41.8305 277.443 110.31 361.239 233.244 361.239C356.178 361.239 441.228 296.312 455.835 219.298C491.251 32.5643 154.083 -86.1223 233.244 77.3565C348.63 315.646 51.9849 173.507 10.653 219.298Z" fill="#FFF9F9"/>
<path d="M34.2014 233.059C-18.2822 291.204 133.859 375 256.792 375C379.726 375 464.777 310.073 479.383 233.059C514.799 46.3256 177.632 -72.3611 256.792 91.1177C372.178 329.407 75.5333 187.268 34.2014 233.059Z" fill="#34113F"/>
<path d="M408.611 96.7341C445.438 95.1097 473.992 87.1514 473.617 78.6163C473.392 73.4992 462.97 69.3844 445.022 67.3274C444.958 67.3196 444.893 67.3246 444.831 67.3422C444.768 67.3597 444.71 67.3894 444.659 67.4295C444.608 67.4697 444.566 67.5195 444.535 67.5761C444.503 67.6328 444.483 67.6951 444.476 67.7595C444.468 67.8239 444.474 67.8891 444.492 67.9514C444.51 68.0137 444.54 68.0718 444.58 68.1224C444.621 68.173 444.671 68.2151 444.727 68.2463C444.784 68.2774 444.846 68.297 444.911 68.304C461.817 70.2418 472.441 74.2099 472.637 78.6595C472.976 86.3779 443.636 94.2053 408.567 95.7521C373.499 97.299 343.585 92.0852 343.246 84.3669C343.05 79.8985 353.351 74.9967 370.129 71.5747C370.193 71.5619 370.253 71.5368 370.306 71.5008C370.36 71.4647 370.406 71.4184 370.442 71.3646C370.477 71.3107 370.502 71.2503 370.515 71.1868C370.527 71.1233 370.527 71.0581 370.514 70.9947C370.501 70.9313 370.476 70.8711 370.439 70.8175C370.403 70.764 370.357 70.7181 370.303 70.6825C370.249 70.6469 370.189 70.6222 370.125 70.6101C370.062 70.5979 369.997 70.5983 369.934 70.6114C352.125 74.2437 342.04 79.2731 342.266 84.4101C342.641 92.9453 371.783 98.3585 408.611 96.7341Z" fill="#F14668"/>
<path d="M441.319 98.1635C438.238 104.027 433.674 108.976 428.084 112.518C422.494 116.059 416.074 118.067 409.465 118.342C402.857 118.617 396.293 117.148 390.429 114.083C384.565 111.018 379.608 106.464 376.052 100.877C397.841 101.172 419.629 100.266 441.319 98.1635Z" fill="#F14668"/>
<path d="M371.979 90.5392C370.124 84.9678 369.59 79.0405 370.418 73.2265C371.246 67.4125 373.413 61.8713 376.749 57.0415C380.084 52.2117 384.495 48.2259 389.634 45.3994C394.773 42.573 400.498 40.9836 406.356 40.757C412.214 40.5304 418.044 41.6727 423.385 44.0937C428.726 46.5147 433.432 50.1479 437.129 54.7056C440.826 59.2634 443.413 64.6206 444.686 70.3534C445.959 76.0861 445.883 82.037 444.463 87.7351C420.524 91.8062 396.159 92.7487 371.979 90.5392Z" fill="#F14668"/>
<path d="M399.172 65.1695C396.733 65.1695 394.756 63.1892 394.756 60.7463C394.756 58.3034 396.733 56.323 399.172 56.323C401.61 56.323 403.587 58.3034 403.587 60.7463C403.587 63.1892 401.61 65.1695 399.172 65.1695Z" fill="#FFF9F9"/>
<path d="M421.896 82.3664C417.832 82.3664 414.537 79.0658 414.537 74.9943C414.537 70.9228 417.832 67.6223 421.896 67.6223C425.96 67.6223 429.255 70.9228 429.255 74.9943C429.255 79.0658 425.96 82.3664 421.896 82.3664Z" fill="#FFF9F9"/>
<path d="M310.83 75.145C308.121 75.145 305.924 72.9447 305.924 70.2304C305.924 67.5161 308.121 65.3158 310.83 65.3158C313.54 65.3158 315.736 67.5161 315.736 70.2304C315.736 72.9447 313.54 75.145 310.83 75.145Z" fill="#F14668"/>
<path d="M421.704 225.536C420.078 225.536 418.76 224.215 418.76 222.587C418.76 220.958 420.078 219.638 421.704 219.638C423.33 219.638 424.647 220.958 424.647 222.587C424.647 224.215 423.33 225.536 421.704 225.536Z" fill="#FFF9F9"/>
<path d="M215.656 326.779C214.03 326.779 212.712 325.458 212.712 323.83C212.712 322.201 214.03 320.881 215.656 320.881C217.281 320.881 218.599 322.201 218.599 323.83C218.599 325.458 217.281 326.779 215.656 326.779Z" fill="#E6E6E6"/>
<path d="M407.477 168.525C406.664 168.525 406.005 167.865 406.005 167.05C406.005 166.236 406.664 165.576 407.477 165.576C408.29 165.576 408.949 166.236 408.949 167.05C408.949 167.865 408.29 168.525 407.477 168.525Z" fill="#FFF9F9"/>
<path d="M285.81 278.615C284.997 278.615 284.338 277.954 284.338 277.14C284.338 276.326 284.997 275.666 285.81 275.666C286.623 275.666 287.282 276.326 287.282 277.14C287.282 277.954 286.623 278.615 285.81 278.615Z" fill="#FFF9F9"/>
<path d="M64.5533 264.362C63.7405 264.362 63.0815 263.702 63.0815 262.887C63.0815 262.073 63.7405 261.413 64.5533 261.413C65.3662 261.413 66.0251 262.073 66.0251 262.887C66.0251 263.702 65.3662 264.362 64.5533 264.362Z" fill="#FFF9F9"/>
<path d="M133.727 308.103C132.914 308.103 132.255 307.443 132.255 306.628C132.255 305.814 132.914 305.154 133.727 305.154C134.54 305.154 135.198 305.814 135.198 306.628C135.198 307.443 134.54 308.103 133.727 308.103Z" fill="#FFF9F9"/>
<path d="M205.844 255.024C205.031 255.024 204.372 254.364 204.372 253.549C204.372 252.735 205.031 252.075 205.844 252.075C206.656 252.075 207.315 252.735 207.315 253.549C207.315 254.364 206.656 255.024 205.844 255.024Z" fill="#FFF9F9"/>
<path d="M299.056 109.548C298.243 109.548 297.584 108.888 297.584 108.074C297.584 107.259 298.243 106.599 299.056 106.599C299.869 106.599 300.528 107.259 300.528 108.074C300.528 108.888 299.869 109.548 299.056 109.548Z" fill="#FFF9F9"/>
<path d="M287.282 36.8103C286.469 36.8103 285.81 36.1502 285.81 35.3359C285.81 34.5216 286.469 33.8615 287.282 33.8615C288.095 33.8615 288.754 34.5216 288.754 35.3359C288.754 36.1502 288.095 36.8103 287.282 36.8103Z" fill="#FFF9F9"/>
<path d="M294.15 342.997C293.337 342.997 292.678 342.337 292.678 341.523C292.678 340.709 293.337 340.048 294.15 340.048C294.963 340.048 295.622 340.709 295.622 341.523C295.622 342.337 294.963 342.997 294.15 342.997Z" fill="#FFF9F9"/>
<path d="M366.758 312.035C365.945 312.035 365.286 311.374 365.286 310.56C365.286 309.746 365.945 309.086 366.758 309.086C367.571 309.086 368.229 309.746 368.229 310.56C368.229 311.374 367.571 312.035 366.758 312.035Z" fill="#FFF9F9"/>
<path d="M136.67 258.956C135.857 258.956 135.198 258.296 135.198 257.481C135.198 256.667 135.857 256.007 136.67 256.007C137.483 256.007 138.142 256.667 138.142 257.481C138.142 258.296 137.483 258.956 136.67 258.956Z" fill="#FFF9F9"/>
<path d="M409.209 114.905C406.771 114.905 404.794 112.925 404.794 110.482C404.794 108.039 406.771 106.059 409.209 106.059C411.648 106.059 413.624 108.039 413.624 110.482C413.624 112.925 411.648 114.905 409.209 114.905Z" fill="#FFF9F9"/>
<path d="M309.358 178.354C309.358 191.565 329.747 222.349 335.705 231.063C335.885 231.326 336.126 231.542 336.408 231.691C336.69 231.84 337.004 231.918 337.322 231.918C337.641 231.918 337.954 231.84 338.236 231.691C338.518 231.542 338.759 231.326 338.939 231.063C344.897 222.349 365.286 191.565 365.286 178.354C365.286 174.675 364.563 171.033 363.157 167.634C361.752 164.235 359.692 161.147 357.096 158.545C354.499 155.944 351.416 153.881 348.023 152.473C344.631 151.065 340.994 150.34 337.322 150.34C333.65 150.34 330.014 151.065 326.621 152.473C323.228 153.881 320.145 155.944 317.549 158.545C314.952 161.147 312.892 164.235 311.487 167.634C310.082 171.033 309.358 174.675 309.358 178.354Z" fill="#FFF9F9"/>
<path d="M337.322 190.641C329.465 190.641 323.095 184.26 323.095 176.388C323.095 168.517 329.465 162.136 337.322 162.136C345.18 162.136 351.549 168.517 351.549 176.388C351.549 184.26 345.18 190.641 337.322 190.641Z" fill="#F14668"/>
<path d="M337.567 247.16C328.491 247.16 321.133 245.73 321.133 243.966C321.133 242.201 328.491 240.771 337.567 240.771C346.644 240.771 354.002 242.201 354.002 243.966C354.002 245.73 346.644 247.16 337.567 247.16Z" fill="#FFF9F9"/>
<path d="M81.2587 156.249C81.383 156.49 81.4882 156.741 81.5731 157L105.015 163.525L109.24 159.383L116.312 164.953L109.544 173.013C108.998 173.664 108.255 174.12 107.428 174.312C106.6 174.504 105.733 174.423 104.956 174.079L79.6335 162.881C78.7744 163.478 77.7541 163.8 76.7084 163.802C75.6626 163.804 74.6409 163.487 73.7792 162.894C72.9175 162.3 72.2566 161.458 71.8844 160.479C71.5123 159.5 71.4464 158.43 71.6957 157.413C71.945 156.396 72.4976 155.478 73.28 154.783C74.0624 154.088 75.0375 153.648 76.0757 153.522C77.1138 153.395 78.1657 153.588 79.0916 154.075C80.0174 154.563 80.7733 155.321 81.2586 156.249H81.2587Z" fill="#FFB8B8"/>
<path d="M105.841 163.907L114.64 170.768C114.89 170.963 115.18 171.102 115.488 171.175C115.797 171.248 116.118 171.254 116.429 171.191C116.74 171.129 117.034 171 117.291 170.814C117.548 170.627 117.762 170.388 117.918 170.111L123.386 160.415C124.376 159.127 124.816 157.497 124.608 155.884C124.4 154.271 123.563 152.807 122.279 151.812C120.995 150.817 119.37 150.372 117.759 150.576C116.148 150.78 114.684 151.615 113.688 152.899L105.672 160.563C105.443 160.782 105.263 161.049 105.146 161.344C105.029 161.639 104.976 161.956 104.992 162.274C105.008 162.591 105.092 162.901 105.239 163.183C105.385 163.465 105.591 163.712 105.841 163.907V163.907Z" fill="#6C63FF"/>
<path d="M79.0109 153.003L70.088 157.025C69.7143 157.194 69.4228 157.504 69.2774 157.887C69.1321 158.271 69.1448 158.697 69.313 159.071L70.3694 161.424C70.2451 161.48 70.1482 161.584 70.0998 161.712C70.0514 161.839 70.0555 161.981 70.1111 162.106L70.5336 163.047C70.59 163.171 70.6932 163.269 70.8208 163.317C70.9484 163.365 71.09 163.361 71.2146 163.306L71.6372 164.247C71.5129 164.303 71.4159 164.407 71.3675 164.534C71.3191 164.662 71.3232 164.804 71.3788 164.929L71.8014 165.87C71.8577 165.994 71.961 166.091 72.0886 166.14C72.2161 166.188 72.3577 166.184 72.4823 166.129L78.187 178.831C78.3551 179.206 78.6648 179.498 79.0479 179.643C79.431 179.789 79.8561 179.776 80.2298 179.608L89.1527 175.586C89.5263 175.418 89.8179 175.107 89.9633 174.724C90.1086 174.34 90.0958 173.914 89.9277 173.54L81.0536 153.78C80.8855 153.406 80.5759 153.113 80.1928 152.968C79.8097 152.822 79.3845 152.835 79.0109 153.003Z" fill="#34113F"/>
<path d="M87.5324 174.334L80.3744 177.564C80.0157 177.725 79.6081 177.737 79.2406 177.597C78.873 177.458 78.5753 177.179 78.4123 176.821L75.1063 169.454L73.9579 166.9L70.9659 160.235C70.8061 159.876 70.7943 159.469 70.9332 159.102C71.0722 158.734 71.3505 158.437 71.7074 158.275L73.9579 157.258L78.8707 155.045C79.2293 154.885 79.6367 154.873 80.0036 155.014C80.3705 155.154 80.6668 155.434 80.8275 155.793L83.7217 162.237L87.0174 169.573L88.2739 172.374C88.4343 172.733 88.4464 173.14 88.3074 173.508C88.1684 173.875 87.8898 174.172 87.5324 174.334Z" fill="#F2F2F2"/>
<path d="M102.49 265.613L96.475 265.612L93.6134 242.371L102.491 242.372L102.49 265.613Z" fill="#FFB8B8"/>
<path d="M104.024 263.645L92.1788 263.645H92.1783C91.1871 263.645 90.2055 263.84 89.2896 264.22C88.3738 264.6 87.5417 265.157 86.8407 265.86C86.1398 266.562 85.5837 267.395 85.2044 268.313C84.8251 269.23 84.6298 270.214 84.6299 271.207V271.453L104.023 271.453L104.024 263.645Z" fill="#2F2E41"/>
<path d="M86.7908 264.138L80.7761 264.138L77.9145 240.897L86.7917 240.897L86.7908 264.138Z" fill="#FFB8B8"/>
<path d="M88.3247 262.171L76.48 262.17H76.4795C75.4882 262.17 74.5066 262.366 73.5908 262.746C72.675 263.126 71.8428 263.683 71.1419 264.385C70.4409 265.087 69.8849 265.921 69.5056 266.838C69.1262 267.756 68.931 268.739 68.931 269.732V269.978L88.3243 269.979L88.3247 262.171Z" fill="#2F2E41"/>
<path d="M129.468 211.076C128.187 214.882 125.756 218.194 122.513 220.555C119.27 222.915 115.374 224.208 111.365 224.253L111.061 224.258C107.956 224.346 104.311 223.344 100.734 221.904C93.6699 219.058 86.8849 214.502 85.0845 213.249L88.1358 242.634L89.3722 254.547C89.4034 254.855 89.3698 255.167 89.2737 255.461C89.1775 255.756 89.0208 256.027 88.8138 256.257C88.6068 256.487 88.3539 256.671 88.0715 256.797C87.7892 256.923 87.4835 256.989 87.1743 256.99H79.5555C79.0669 256.99 78.592 256.828 78.2051 256.529C77.8181 256.231 77.5408 255.812 77.4166 255.338L64.8377 207.346C64.4605 205.91 64.4301 204.404 64.7492 202.953C65.0682 201.503 65.7275 200.149 66.6726 199.005C67.6176 197.86 68.8211 196.957 70.1835 196.371C71.5459 195.785 73.0281 195.533 74.5073 195.634L100.636 197.428L98.8112 190.115L122.134 188.562L122.202 188.611C122.762 189.019 123.306 189.447 123.826 189.894C125.127 190.996 126.279 192.261 127.256 193.659C129.002 196.167 130.116 199.061 130.502 202.095C130.887 205.128 130.532 208.21 129.468 211.076Z" fill="#2F2E41"/>
<path d="M129.468 211.076C128.187 214.882 125.756 218.194 122.513 220.555C119.27 222.915 115.374 224.208 111.365 224.253C107.532 222.309 103.833 220.111 100.293 217.672L100.734 221.904L104.58 258.97C104.612 259.279 104.578 259.59 104.482 259.884C104.386 260.179 104.229 260.45 104.022 260.68C103.815 260.91 103.562 261.094 103.28 261.22C102.997 261.347 102.692 261.412 102.383 261.413H94.7638C94.2753 261.413 93.8003 261.251 93.4134 260.953C93.0264 260.654 92.7491 260.235 92.6249 259.762L88.1358 242.634L80.0461 211.769C79.6688 210.333 79.6384 208.827 79.9575 207.377C80.2765 205.926 80.9358 204.572 81.8809 203.428C82.8259 202.283 84.0294 201.381 85.3918 200.794C86.7543 200.208 88.2364 199.956 89.7156 200.058L115.844 201.852L114.02 194.538L127.256 193.659C129.002 196.167 130.116 199.061 130.502 202.095C130.887 205.128 130.532 208.21 129.468 211.076Z" fill="#2F2E41"/>
<path d="M123.86 191.589L124.035 191.568L128.105 171.524C128.14 171.35 131.466 154.06 121.268 145.021L121.09 143.784C121.045 143.468 120.931 143.165 120.757 142.896C120.584 142.628 120.354 142.4 120.084 142.229C119.814 142.059 119.511 141.948 119.194 141.906C118.878 141.864 118.556 141.892 118.251 141.987L108.643 144.972C108.099 145.14 107.641 145.512 107.365 146.011C107.089 146.509 107.016 147.095 107.162 147.647L108.096 151.206C106.801 152.729 91.5556 171.116 96.8659 185.282L99.2442 194.596L123.86 191.589Z" fill="#F14668"/>
<path d="M83.9647 175.945C84.1945 176.09 84.4125 176.253 84.6167 176.432L108.115 170.113L109.651 164.395L118.568 165.59L116.83 175.977C116.69 176.816 116.281 177.587 115.666 178.174C115.051 178.76 114.263 179.132 113.42 179.231L85.9309 182.485C85.4942 183.436 84.7786 184.233 83.8792 184.767C82.9798 185.302 81.9393 185.549 80.896 185.477C79.8528 185.405 78.8562 185.016 78.0388 184.362C77.2215 183.709 76.6222 182.821 76.3206 181.818C76.0189 180.815 76.0293 179.744 76.3503 178.747C76.6713 177.75 77.2877 176.874 78.1176 176.237C78.9474 175.599 79.9513 175.23 80.9958 175.178C82.0402 175.126 83.0758 175.393 83.9646 175.945H83.9647Z" fill="#FFB8B8"/>
<path d="M109.02 170.022L120.079 171.449C120.393 171.489 120.713 171.461 121.016 171.367C121.319 171.273 121.598 171.114 121.834 170.902C122.07 170.69 122.258 170.429 122.385 170.138C122.512 169.846 122.574 169.531 122.568 169.213L122.357 158.079C122.555 156.465 122.107 154.838 121.109 153.555C120.112 152.272 118.648 151.438 117.037 151.235C115.427 151.032 113.802 151.477 112.518 152.472C111.235 153.468 110.398 154.933 110.191 156.545L107.178 167.227C107.091 167.533 107.072 167.854 107.121 168.168C107.17 168.482 107.285 168.782 107.46 169.047C107.635 169.312 107.865 169.537 108.134 169.705C108.403 169.873 108.706 169.981 109.02 170.022Z" fill="#F14668"/>
<path d="M112.133 139.266C105.478 139.266 100.084 133.861 100.084 127.195C100.084 120.528 105.478 115.124 112.133 115.124C118.788 115.124 124.182 120.528 124.182 127.195C124.182 133.861 118.788 139.266 112.133 139.266Z" fill="#FFB8B8"/>
<path d="M112.767 128.203L114.275 125.451C117.133 137.114 112.085 146.767 112.085 146.767L131.676 137.626L131.489 134.382L133.428 136.586L136.213 135.048L136.581 132.944L138.684 133.466L131.009 119.514C123.561 106.238 112.732 111.307 112.732 111.307C95.5046 110.486 97.6086 127.513 97.6086 127.513L112.767 128.203Z" fill="#34113F"/>
<path d="M249.931 218.158C247.152 216.374 250.531 206.128 257.477 195.274C264.422 184.42 272.305 177.067 275.083 178.851C277.862 180.636 274.483 190.881 267.537 201.735C260.591 212.589 252.709 219.942 249.931 218.158Z" fill="#34113F"/>
</g>
<defs>
<clipPath id="clip0">
<rect width="482" height="375" fill="white" transform="matrix(-1 0 0 1 482 0)"/>
</clipPath>
</defs>
</svg>
