<svg width="155" height="141" viewBox="0 0 155 141" fill="none" xmlns="http://www.w3.org/2000/svg">
<g clip-path="url(#clip0)">
<path d="M69.1948 114.505C56.7655 114.506 44.7208 110.192 35.1128 102.301C25.5049 94.41 18.9282 83.4288 16.5033 71.2288C14.0785 59.0288 15.9555 46.3647 21.8146 35.3944C27.6737 24.4242 37.1523 15.8264 48.6355 11.0662C60.1186 6.30598 72.8957 5.67777 84.7897 9.28863C96.6838 12.8995 106.959 20.526 113.864 30.8687C120.769 41.2114 123.878 53.6303 122.66 66.0095C121.441 78.3886 115.972 89.9621 107.183 98.7578C102.206 103.766 96.2857 107.737 89.765 110.44C83.2443 113.143 76.2527 114.525 69.1948 114.505ZM69.1948 7.40258C39.8078 7.40258 15.8999 31.3294 15.8999 60.7395C15.8999 90.1496 39.8078 114.077 69.1948 114.077C98.5816 114.077 122.49 90.1496 122.49 60.7395C122.49 31.3294 98.5816 7.40258 69.1948 7.40258V7.40258Z" fill="#F14668"/>
<path d="M39.2075 62.4746H35.1299V76.6004H39.2075V62.4746Z" fill="#3F3D56"/>
<path d="M41.9003 73.9432L31.983 62.1356L12.076 62.3177L0 74.0893L0.244096 74.2463H0.156873V98.7309H41.8736V74.2463L41.9003 73.9432Z" fill="#34113F"/>
<path d="M31.9933 62.1607L19.6038 76.6975V98.7309H41.8735V73.9323L31.9933 62.1607Z" fill="#F14668"/>
<path d="M33.0912 86.5462H28.5431V90.5693H33.0912V86.5462Z" fill="#3F3D56"/>
<path d="M33.0912 79.5826H28.5431V83.542H33.0912V79.5826Z" fill="#3F3D56"/>
<path d="M33.0912 86.5462H28.5431V90.5693H33.0912V86.5462Z" fill="white"/>
<path d="M33.0912 79.5826H28.5431V83.542H33.0912V79.5826Z" fill="white"/>
<path d="M12.8791 85.4787H8.33105V89.5018H12.8791V85.4787Z" fill="#3F3D56"/>
<path d="M12.8791 78.5151H8.33105V82.4744H12.8791V78.5151Z" fill="#3F3D56"/>
<path d="M12.8791 85.4787H8.33105V89.5018H12.8791V85.4787Z" fill="white"/>
<path d="M12.8791 78.5151H8.33105V82.4744H12.8791V78.5151Z" fill="white"/>
<path d="M103.87 0.339081H99.7926V14.4649H103.87V0.339081Z" fill="#3F3D56"/>
<path d="M97.1265 12.1106V50.7503H138.843V12.1106H138.756L139 11.9536L126.924 0.182091L107.017 0L97.0997 11.8076L97.1265 12.1106Z" fill="#34113F"/>
<path d="M97.1265 11.7966V50.7503H119.396V14.5621L107.007 0.0250854L97.1265 11.7966Z" fill="#F14668"/>
<path d="M110.457 24.4106H105.909V28.4338H110.457V24.4106Z" fill="#3F3D56"/>
<path d="M110.457 17.447H105.909V21.4064H110.457V17.447Z" fill="#3F3D56"/>
<path d="M110.457 24.4106H105.909V28.4338H110.457V24.4106Z" fill="white"/>
<path d="M110.457 17.447H105.909V21.4064H110.457V17.447Z" fill="white"/>
<path d="M130.669 23.3431H126.121V27.3663H130.669V23.3431Z" fill="#3F3D56"/>
<path d="M130.669 16.3795H126.121V20.3389H130.669V16.3795Z" fill="#3F3D56"/>
<path d="M130.669 23.3431H126.121V27.3663H130.669V23.3431Z" fill="white"/>
<path d="M130.669 16.3795H126.121V20.3389H130.669V16.3795Z" fill="white"/>
<path d="M110.457 38.5656H105.909V42.5887H110.457V38.5656Z" fill="white"/>
<path d="M110.457 31.6019H105.909V35.5613H110.457V31.6019Z" fill="white"/>
<path d="M130.669 37.498H126.121V41.5211H130.669V37.498Z" fill="white"/>
<path d="M130.669 30.5344H126.121V34.4938H130.669V30.5344Z" fill="white"/>
<path d="M71.6687 45.1615C75.289 45.1615 78.2239 42.2243 78.2239 38.6011C78.2239 34.9779 75.289 32.0407 71.6687 32.0407C68.0483 32.0407 65.1134 34.9779 65.1134 38.6011C65.1134 42.2243 68.0483 45.1615 71.6687 45.1615Z" fill="#A0616A"/>
<path d="M64.9363 50.4808L76.0979 50.3035C75.1379 47.656 74.7218 45.1771 75.3893 43.0338L66.8851 42.1473C68.0342 44.9251 67.3846 47.703 64.9363 50.4808Z" fill="#A0616A"/>
<path d="M55.1919 94.4535L57.0454 99.4C57.2044 99.8245 57.2651 100.279 57.223 100.731C57.1808 101.182 57.0368 101.618 56.8018 102.006C56.5669 102.393 56.2471 102.722 55.8666 102.968C55.4861 103.214 55.0548 103.37 54.6052 103.425V103.425C54.1751 103.478 53.7387 103.436 53.3262 103.303C52.9137 103.17 52.5349 102.949 52.216 102.656C51.8972 102.362 51.6459 102.003 51.4794 101.602C51.313 101.202 51.2354 100.77 51.2521 100.337L51.4714 94.6308L53.0659 65.3748L59.6211 67.3252L55.1919 94.4535Z" fill="#A0616A"/>
<path d="M62.1015 149.419L67.4166 148.887L72.2001 102.432L78.9326 149.774L83.8934 149.597L85.1336 97.645H61.3928L62.1015 149.419Z" fill="#34113F"/>
<path d="M79.4641 36.1188C79.4641 36.1188 77.6924 40.0196 76.4522 40.1969C75.2121 40.3742 73.086 42.3246 73.4404 43.2111C73.7947 44.0977 73.6175 46.7573 70.0741 46.4027C66.5308 46.0481 66.7079 45.6935 66.7079 45.6935C66.7079 45.6935 61.0385 34.8776 66.8851 32.0407C72.7317 29.2037 77.8696 31.3314 79.4641 36.1188Z" fill="#2F2E41"/>
<path d="M59.444 99.7728L85.8423 98.5316C80.919 82.7204 80.8826 69.7829 87.0824 57.8699C87.0824 56.6236 86.7176 55.4046 86.0331 54.3635C85.3485 53.3224 84.3741 52.5048 83.2304 52.0117L75.5665 48.7077L65.8222 49.2397L59.3924 52.7788C58.1333 53.4719 57.0946 54.5056 56.3951 55.7618C55.6956 57.0181 55.3636 58.446 55.437 59.8822C61.0662 73.3306 61.3877 86.5916 59.444 99.7728Z" fill="#E6E6E6"/>
<path d="M64.2275 68.921L49.5225 66.4387L51.9452 60.4189C52.7971 58.3022 54.0953 56.3943 55.7511 54.8255C57.407 53.2567 59.3816 52.0639 61.5401 51.3285L62.9873 50.8354L64.2275 68.921Z" fill="#E6E6E6"/>
<path d="M110.354 55.3874L114.881 53.4999C115.339 53.3089 115.75 53.0202 116.085 52.6539C116.42 52.2877 116.671 51.8527 116.821 51.3793C116.971 50.9059 117.016 50.4055 116.953 49.913C116.889 49.4204 116.72 48.9476 116.455 48.5275V48.5275C116.17 48.0754 115.783 47.6965 115.326 47.4213C114.868 47.1461 114.352 46.9823 113.819 46.943C113.287 46.9038 112.752 46.9902 112.259 47.1954C111.766 47.4005 111.328 47.7187 110.98 48.1242L107.621 52.04L94.4553 61.4952L85.5051 57.777L84.4388 65.2064L95.6206 68.121L110.354 55.3874Z" fill="#A0616A"/>
<path d="M86.4947 68.0838L93.7812 61.2206L91.8524 58.8613C90.1286 54.5781 86.1652 52.8166 81.7973 51.3285L80.35 50.8354L79.2083 62.5074L86.4947 68.0838Z" fill="#E6E6E6"/>
</g>
<defs>
<clipPath id="clip0">
<rect width="139" height="158" fill="white"/>
</clipPath>
</defs>
</svg>
