<svg width="180" height="141" viewBox="0 0 180 141" fill="none" xmlns="http://www.w3.org/2000/svg">
<g clip-path="url(#clip0)">
<path d="M191.425 150.83H73.8274C72.6146 150.828 71.4517 150.311 70.5941 149.392C69.7365 148.473 69.2541 147.227 69.2527 145.927V4.90269C69.2541 3.60286 69.7365 2.35669 70.5941 1.43758C71.4517 0.518464 72.6146 0.00146327 73.8274 0H191.425C192.638 0.00146327 193.801 0.518464 194.659 1.43758C195.516 2.35669 195.999 3.60286 196 4.90269V145.927C195.999 147.227 195.516 148.473 194.659 149.392C193.801 150.311 192.638 150.828 191.425 150.83ZM73.8274 0.576787C72.7572 0.578084 71.7312 1.03426 70.9745 1.84524C70.2178 2.65623 69.7921 3.75578 69.7909 4.90269V145.927C69.7921 147.074 70.2178 148.173 70.9745 148.984C71.7312 149.795 72.7572 150.252 73.8274 150.253H191.425C192.496 150.252 193.522 149.795 194.278 148.984C195.035 148.173 195.461 147.074 195.462 145.927V4.90269C195.461 3.75578 195.035 2.65623 194.278 1.84524C193.522 1.03426 192.496 0.578084 191.425 0.576787H73.8274Z" fill="#F14668"/>
<path d="M195.731 11.9944H69.5217V12.5712H195.731V11.9944Z" fill="#F14668"/>
<path d="M75.7112 8.6518C76.9001 8.6518 77.864 7.61885 77.864 6.34465C77.864 5.07045 76.9001 4.03751 75.7112 4.03751C74.5222 4.03751 73.5583 5.07045 73.5583 6.34465C73.5583 7.61885 74.5222 8.6518 75.7112 8.6518Z" fill="#F14668"/>
<path d="M82.4387 8.6518C83.6277 8.6518 84.5915 7.61885 84.5915 6.34465C84.5915 5.07045 83.6277 4.03751 82.4387 4.03751C81.2497 4.03751 80.2859 5.07045 80.2859 6.34465C80.2859 7.61885 81.2497 8.6518 82.4387 8.6518Z" fill="#F14668"/>
<path d="M89.1663 8.6518C90.3552 8.6518 91.3191 7.61885 91.3191 6.34465C91.3191 5.07045 90.3552 4.03751 89.1663 4.03751C87.9773 4.03751 87.0134 5.07045 87.0134 6.34465C87.0134 7.61885 87.9773 8.6518 89.1663 8.6518Z" fill="#F14668"/>
<path d="M174.606 33.1652H90.6464C89.7186 33.1652 88.8288 32.7702 88.1727 32.0671C87.5166 31.364 87.1481 30.4104 87.1481 29.4161C87.1481 28.4218 87.5166 27.4682 88.1727 26.7651C88.8288 26.062 89.7186 25.667 90.6464 25.667H174.606C175.534 25.667 176.424 26.062 177.08 26.7651C177.736 27.4682 178.105 28.4218 178.105 29.4161C178.105 30.4104 177.736 31.364 177.08 32.0671C176.424 32.7702 175.534 33.1652 174.606 33.1652ZM90.6464 26.2438C89.8613 26.2438 89.1084 26.578 88.5533 27.1729C87.9982 27.7679 87.6863 28.5748 87.6863 29.4161C87.6863 30.2575 87.9982 31.0643 88.5533 31.6593C89.1084 32.2542 89.8613 32.5884 90.6464 32.5884H174.606C175.392 32.5884 176.144 32.2542 176.7 31.6593C177.255 31.0643 177.567 30.2575 177.567 29.4161C177.567 28.5748 177.255 27.7679 176.7 27.1729C176.144 26.578 175.392 26.2438 174.606 26.2438H90.6464Z" fill="#F14668"/>
<path d="M153.846 62.7517H115.634C115.063 62.7517 114.515 62.5086 114.111 62.0759C113.708 61.6432 113.481 61.0564 113.481 60.4445C113.481 59.8326 113.708 59.2458 114.111 58.8131C114.515 58.3804 115.063 58.1374 115.634 58.1374H153.846C154.417 58.1374 154.965 58.3804 155.369 58.8131C155.772 59.2458 155.999 59.8326 155.999 60.4445C155.999 61.0564 155.772 61.6432 155.369 62.0759C154.965 62.5086 154.417 62.7517 153.846 62.7517Z" fill="#CCCCCC"/>
<path d="M175.913 70.5383H115.634C115.063 70.5383 114.515 70.2952 114.111 69.8625C113.708 69.4299 113.481 68.843 113.481 68.2311C113.481 67.6192 113.708 67.0324 114.111 66.5997C114.515 66.1671 115.063 65.924 115.634 65.924H175.913C176.484 65.924 177.031 66.1671 177.435 66.5997C177.839 67.0324 178.065 67.6192 178.065 68.2311C178.065 68.843 177.839 69.4299 177.435 69.8625C177.031 70.2952 176.484 70.5383 175.913 70.5383Z" fill="#CCCCCC"/>
<path d="M101.315 70.9709H89.7436C89.0658 70.97 88.416 70.6811 87.9368 70.1675C87.4575 69.6539 87.1879 68.9575 87.1871 68.2311V60.4445C87.1879 59.7181 87.4575 59.0218 87.9368 58.5081C88.416 57.9945 89.0658 57.7056 89.7436 57.7048H101.315C101.993 57.7056 102.643 57.9945 103.122 58.5081C103.601 59.0218 103.871 59.7181 103.872 60.4445V68.2311C103.871 68.9575 103.601 69.6539 103.122 70.1675C102.643 70.6811 101.993 70.97 101.315 70.9709ZM89.7436 58.2816C89.2085 58.2822 88.6955 58.5103 88.3171 58.9158C87.9388 59.3213 87.7259 59.8711 87.7253 60.4445V68.2311C87.7259 68.8046 87.9388 69.3544 88.3171 69.7598C88.6955 70.1653 89.2085 70.3934 89.7436 70.3941H101.315C101.85 70.3934 102.363 70.1653 102.742 69.7598C103.12 69.3544 103.333 68.8046 103.333 68.2311V60.4445C103.333 59.8711 103.12 59.3213 102.742 58.9158C102.363 58.5103 101.85 58.2822 101.315 58.2816H89.7436Z" fill="#CCCCCC"/>
<path d="M153.846 90.149H115.634C115.063 90.149 114.515 89.9059 114.111 89.4733C113.708 89.0406 113.481 88.4538 113.481 87.8419C113.481 87.23 113.708 86.6431 114.111 86.2105C114.515 85.7778 115.063 85.5347 115.634 85.5347H153.846C154.417 85.5347 154.965 85.7778 155.369 86.2105C155.772 86.6431 155.999 87.23 155.999 87.8419C155.999 88.4538 155.772 89.0406 155.369 89.4733C154.965 89.9059 154.417 90.149 153.846 90.149Z" fill="#CCCCCC"/>
<path d="M175.913 97.9356H115.634C115.063 97.9356 114.515 97.6926 114.111 97.2599C113.708 96.8272 113.481 96.2404 113.481 95.6285C113.481 95.0166 113.708 94.4298 114.111 93.9971C114.515 93.5644 115.063 93.3214 115.634 93.3214H175.913C176.484 93.3214 177.031 93.5644 177.435 93.9971C177.839 94.4298 178.065 95.0166 178.065 95.6285C178.065 96.2404 177.839 96.8272 177.435 97.2599C177.031 97.6926 176.484 97.9356 175.913 97.9356Z" fill="#CCCCCC"/>
<path d="M101.315 98.3682H89.7436C89.0658 98.3674 88.416 98.0785 87.9368 97.5648C87.4575 97.0512 87.1879 96.3548 87.1871 95.6285V87.8418C87.1879 87.1155 87.4575 86.4191 87.9368 85.9055C88.416 85.3919 89.0658 85.1029 89.7436 85.1021H101.315C101.993 85.1029 102.643 85.3919 103.122 85.9055C103.601 86.4191 103.871 87.1155 103.872 87.8418V95.6285C103.871 96.3548 103.601 97.0512 103.122 97.5648C102.643 98.0785 101.993 98.3674 101.315 98.3682ZM89.7436 85.6789C89.2085 85.6795 88.6955 85.9076 88.3171 86.3131C87.9388 86.7186 87.7259 87.2684 87.7253 87.8418V95.6285C87.7259 96.2019 87.9388 96.7517 88.3171 97.1572C88.6955 97.5627 89.2085 97.7908 89.7436 97.7914H101.315C101.85 97.7908 102.363 97.5627 102.742 97.1572C103.12 96.7517 103.333 96.2019 103.333 95.6285V87.8418C103.333 87.2684 103.12 86.7186 102.742 86.3131C102.363 85.9076 101.85 85.6795 101.315 85.6789H89.7436Z" fill="#CCCCCC"/>
<path d="M153.846 117.546H115.634C115.063 117.546 114.515 117.303 114.111 116.871C113.708 116.438 113.481 115.851 113.481 115.239C113.481 114.627 113.708 114.041 114.111 113.608C114.515 113.175 115.063 112.932 115.634 112.932H153.846C154.417 112.932 154.965 113.175 155.369 113.608C155.772 114.041 155.999 114.627 155.999 115.239C155.999 115.851 155.772 116.438 155.369 116.871C154.965 117.303 154.417 117.546 153.846 117.546Z" fill="#F2F2F2"/>
<path d="M175.913 125.333H115.634C115.063 125.333 114.515 125.09 114.111 124.657C113.708 124.225 113.481 123.638 113.481 123.026C113.481 122.414 113.708 121.827 114.111 121.394C114.515 120.962 115.063 120.719 115.634 120.719H175.913C176.484 120.719 177.031 120.962 177.435 121.394C177.839 121.827 178.065 122.414 178.065 123.026C178.065 123.638 177.839 124.225 177.435 124.657C177.031 125.09 176.484 125.333 175.913 125.333Z" fill="#F2F2F2"/>
<path d="M101.315 125.766H89.7436C89.0658 125.765 88.416 125.476 87.9368 124.962C87.4575 124.449 87.1879 123.752 87.1871 123.026V115.239C87.1879 114.513 87.4575 113.816 87.9368 113.303C88.416 112.789 89.0658 112.5 89.7436 112.5H101.315C101.993 112.5 102.643 112.789 103.122 113.303C103.601 113.816 103.871 114.513 103.872 115.239V123.026C103.871 123.752 103.601 124.449 103.122 124.962C102.643 125.476 101.993 125.765 101.315 125.766Z" fill="#F2F2F2"/>
<path d="M95.5294 68.5883L94.9063 67.9859C92.6936 65.8087 91.2328 64.3956 91.2328 62.6353C91.2273 62.3004 91.2846 61.9677 91.4012 61.6569C91.5179 61.3462 91.6915 61.0636 91.9118 60.8261C92.1322 60.5885 92.3947 60.4007 92.684 60.2738C92.9733 60.1469 93.2834 60.0835 93.5959 60.0874C93.9648 60.0895 94.3288 60.1776 94.6627 60.3456C94.9965 60.5136 95.2923 60.7575 95.5294 61.0603C95.7665 60.7575 96.0623 60.5136 96.3962 60.3456C96.7301 60.1776 97.0941 60.0895 97.4629 60.0874C97.7755 60.0835 98.0855 60.1469 98.3748 60.2738C98.6641 60.4007 98.9267 60.5885 99.147 60.8261C99.3674 61.0636 99.541 61.3462 99.6576 61.6569C99.7743 61.9677 99.8315 62.3004 99.826 62.6353C99.826 64.3956 98.3652 65.8087 96.1525 67.9859L95.5294 68.5883Z" fill="#F14668"/>
<path d="M95.5294 95.9856L94.9063 95.3832C92.6936 93.206 91.2328 91.793 91.2328 90.0327C91.2273 89.6977 91.2846 89.365 91.4012 89.0543C91.5179 88.7435 91.6915 88.461 91.9118 88.2234C92.1322 87.9858 92.3947 87.798 92.684 87.6712C92.9733 87.5443 93.2834 87.4809 93.5959 87.4847C93.9648 87.4868 94.3288 87.5749 94.6627 87.7429C94.9965 87.9109 95.2923 88.1548 95.5294 88.4576C95.7665 88.1548 96.0623 87.9109 96.3962 87.7429C96.7301 87.5749 97.0941 87.4868 97.4629 87.4847C97.7755 87.4809 98.0855 87.5443 98.3748 87.6712C98.6641 87.798 98.9267 87.9858 99.147 88.2234C99.3674 88.461 99.541 88.7435 99.6576 89.0543C99.7743 89.365 99.8315 89.6977 99.826 90.0327C99.826 91.793 98.3652 93.2061 96.1525 95.3832L95.5294 95.9856Z" fill="#F14668"/>
<path d="M46.6438 91.3767H35.0723C34.3946 91.3758 33.7448 91.0869 33.2655 90.5733C32.7862 90.0597 32.5166 89.3633 32.5159 88.6369V80.8503C32.5166 80.124 32.7862 79.4276 33.2655 78.914C33.7448 78.4003 34.3946 78.1114 35.0723 78.1106H46.6438C47.3215 78.1114 47.9714 78.4003 48.4506 78.914C48.9299 79.4276 49.1995 80.124 49.2002 80.8503V88.6369C49.1995 89.3633 48.9299 90.0597 48.4506 90.5733C47.9714 91.0869 47.3215 91.3758 46.6438 91.3767ZM35.0723 78.6874C34.5372 78.688 34.0242 78.9161 33.6459 79.3216C33.2675 79.7271 33.0547 80.2769 33.0541 80.8503V88.6369C33.0547 89.2104 33.2675 89.7602 33.6459 90.1657C34.0242 90.5712 34.5372 90.7992 35.0723 90.7999H46.6438C47.1789 90.7992 47.6919 90.5712 48.0702 90.1657C48.4486 89.7602 48.6614 89.2104 48.662 88.6369V80.8503C48.6614 80.2769 48.4486 79.7271 48.0702 79.3216C47.6919 78.9161 47.1789 78.688 46.6438 78.6874H35.0723Z" fill="#3F3D56"/>
<path d="M40.858 88.9941L40.2349 88.3917C38.0222 86.2145 36.5614 84.8014 36.5614 83.0411C36.5559 82.7062 36.6132 82.3735 36.7298 82.0628C36.8465 81.752 37.0201 81.4694 37.2404 81.2319C37.4608 80.9943 37.7234 80.8065 38.0126 80.6796C38.3019 80.5528 38.612 80.4894 38.9245 80.4932C39.2934 80.4953 39.6574 80.5834 39.9913 80.7514C40.3252 80.9194 40.6209 81.1633 40.858 81.4661C41.0952 81.1633 41.3909 80.9194 41.7248 80.7514C42.0587 80.5834 42.4227 80.4953 42.7915 80.4932C43.1041 80.4894 43.4142 80.5528 43.7034 80.6796C43.9927 80.8065 44.2553 80.9943 44.4756 81.2319C44.696 81.4694 44.8696 81.752 44.9863 82.0628C45.1029 82.3735 45.1602 82.7062 45.1547 83.0411C45.1547 84.8014 43.6939 86.2145 41.4811 88.3917L40.858 88.9941Z" fill="#F14668"/>
<path d="M31.2289 139.488L24.7286 115.613L32.8515 113.454L37.6168 138.739C37.6517 138.924 37.6485 139.115 37.6073 139.299C37.5661 139.483 37.488 139.655 37.3784 139.803C37.2687 139.951 37.1303 140.071 36.9727 140.156C36.815 140.241 36.6421 140.287 36.4658 140.293L32.4274 140.422C32.4152 140.422 32.4031 140.422 32.391 140.422C32.1291 140.422 31.8743 140.331 31.6647 140.162C31.4552 139.994 31.3023 139.757 31.2289 139.488Z" fill="#34113F"/>
<path d="M15.092 142.827C14.979 142.71 14.8888 142.57 14.8267 142.415C14.7646 142.26 14.7318 142.093 14.7302 141.925L11.9274 118.108C11.9262 117.764 12.052 117.434 12.2773 117.19C12.5026 116.945 12.809 116.806 13.1295 116.803L19.3857 116.755H19.3946C19.7123 116.756 20.017 116.89 20.2434 117.129C20.4697 117.368 20.5996 117.692 20.6053 118.033L20.9379 141.495C20.9429 141.837 20.8213 142.168 20.5997 142.414C20.3781 142.661 20.0744 142.804 19.755 142.812L15.9572 143.198C15.9514 143.198 15.9455 143.198 15.9397 143.198C15.6225 143.199 15.3178 143.066 15.092 142.827Z" fill="#34113F"/>
<path d="M16.4327 63.997C20.083 63.997 23.0421 60.8258 23.0421 56.9138C23.0421 53.0018 20.083 49.8306 16.4327 49.8306C12.7824 49.8306 9.82324 53.0018 9.82324 56.9138C9.82324 60.8258 12.7824 63.997 16.4327 63.997Z" fill="#FFB8B8"/>
<path d="M7.7254 116.863C3.42503 113.262 3.47055 109.061 4.93792 103.45C5.3513 101.87 5.79746 100.268 6.26977 98.5715C8.4643 90.6912 10.9516 81.7593 10.0073 74.3844L10.1406 74.3649L10.0073 74.3844C9.74866 72.3646 10.4079 70.2399 11.816 68.5555C13.2241 66.8707 15.1194 65.9372 17.0246 65.9899C18.9265 66.0443 20.7758 67.0862 22.0983 68.8486C23.4144 70.6025 24.0426 76.7696 24.2288 77.6535C25.0836 81.7103 25.5995 84.159 25.9695 88.0652C26.4071 92.6833 31.6483 106.491 33.3184 108.806C33.7616 109.418 34.079 110.123 34.2495 110.875C34.4201 111.627 34.4399 112.41 34.3078 113.171C34.1847 113.895 33.9179 114.582 33.5253 115.186C33.1327 115.79 32.6236 116.296 32.0325 116.67C29.3221 118.446 26.3438 119.702 23.2312 120.382C21.881 120.663 20.5089 120.804 19.1336 120.805C14.8664 120.805 10.7891 119.429 7.7254 116.863Z" fill="#F14668"/>
<path d="M35.2108 90.1776C35.0396 89.8274 34.7989 89.5217 34.5056 89.282C34.2122 89.0422 33.8734 88.8743 33.513 88.7901C33.1525 88.7059 32.7793 88.7074 32.4194 88.7945C32.0596 88.8817 31.722 89.0523 31.4303 89.2944L26.422 86.2317L23.943 89.0395L31.0724 93.2581C31.4844 93.7562 32.0525 94.0751 32.6692 94.1543C33.2859 94.2335 33.9082 94.0675 34.4183 93.6878C34.9285 93.3081 35.2909 92.741 35.4369 92.0941C35.583 91.4471 35.5025 90.7652 35.2108 90.1776V90.1776Z" fill="#FFB8B8"/>
<path d="M27.576 92.2537L18.5994 89.2315C17.3942 88.8228 16.335 88.0277 15.5646 86.9536C14.7943 85.8795 14.3498 84.5781 14.2913 83.2248L13.9051 73.8776C13.8834 73.3518 13.9608 72.8267 14.1329 72.3337C14.3049 71.8407 14.5679 71.39 14.9062 71.0085C15.2446 70.6269 15.6512 70.3224 16.1019 70.1132C16.5525 69.904 17.0379 69.7943 17.529 69.7908C18.0201 69.7873 18.5069 69.8899 18.9601 70.0926C19.4134 70.2953 19.8238 70.5939 20.1669 70.9705C20.51 71.3471 20.7786 71.794 20.9568 72.2845C21.135 72.7749 21.2191 73.2989 21.204 73.825L20.9571 82.4248L30.5107 86.6003C30.6794 86.6741 30.8304 86.7877 30.9524 86.9326C31.0745 87.0776 31.1644 87.2502 31.2156 87.4376C31.2668 87.625 31.2778 87.8223 31.2479 88.0149C31.218 88.2075 31.148 88.3904 31.043 88.5499L28.9286 91.7635C28.781 91.9887 28.5704 92.1576 28.3271 92.2458C28.0839 92.3339 27.8208 92.3367 27.5759 92.2537H27.576Z" fill="#34113F"/>
<path d="M5.78079 65.728C6.0828 63.7868 6.07171 61.7748 6.06093 59.829C6.05804 59.3008 6.05508 58.7727 6.0581 58.2457C6.07216 55.7962 6.21401 53.1999 7.14844 50.8098C8.16546 48.2086 10.0488 46.3303 12.1864 45.7853C14.5963 45.1702 17.2113 46.53 17.9986 48.7688C18.519 48.4538 19.0982 48.2665 19.6944 48.2205C20.2906 48.1744 20.8888 48.2708 21.446 48.5026C22.0032 48.7344 22.5055 49.0958 22.9165 49.5608C23.3276 50.0259 23.6372 50.5829 23.823 51.1917C24.0088 51.8005 24.0662 52.4459 23.991 53.0814C23.9159 53.7169 23.71 54.3265 23.3884 54.8664C23.0667 55.4063 22.6372 55.8629 22.1309 56.2033C21.6246 56.5437 21.0541 56.7595 20.4606 56.835L20.3596 56.8445L19.572 54.6512C19.5676 54.6896 19.5633 54.7285 19.559 54.7676C19.5088 55.2225 19.457 55.6927 19.1066 55.9643C18.6692 56.3034 18.1244 57.4193 18.2836 58.55C18.3829 59.1285 18.5308 59.6962 18.7255 60.2461C18.9419 60.8498 19.0991 61.4761 19.1943 62.1148C19.2944 62.9334 19.0946 63.7618 18.6367 64.4258C18.501 64.6196 18.3298 64.7818 18.1338 64.9024C17.9377 65.0229 17.7207 65.0995 17.4961 65.1273L8.61898 66.111L8.22209 62.9333L5.69702 66.2662L5.78079 65.728Z" fill="#34113F"/>
</g>
<defs>
<clipPath id="clip0">
<rect width="196" height="151" fill="white"/>
</clipPath>
</defs>
</svg>
