<svg width="194" height="153" viewBox="0 0 194 153" fill="none" xmlns="http://www.w3.org/2000/svg">
<g clip-path="url(#clip0)">
<path d="M28.7678 156.139L32.5315 157.186L38.3815 143.239L32.8268 141.694L28.7678 156.139Z" fill="#FFB8B8"/>
<path d="M73.6642 159.072L77.5724 159.071L79.4309 144.072L73.663 144.073L73.6642 159.072Z" fill="#FFB8B8"/>
<path d="M44.6227 96.8012L35.6273 118.728L72.3584 126.938L72.8269 114.671L56.148 96.9943L44.6227 96.8012Z" fill="#B3B3B3"/>
<path d="M64.5514 62.6441C68.6203 60.4309 70.1156 55.3548 67.8914 51.3062C65.6671 47.2577 60.5656 45.7698 56.4967 47.9829C52.4279 50.1961 50.9325 55.2722 53.1567 59.3207C55.381 63.3693 60.4825 64.8572 64.5514 62.6441Z" fill="#FFB8B8"/>
<path d="M66.5235 95.5879L49.8976 88.816L48.4173 79.1041C47.9814 76.2653 48.6621 73.3686 50.3179 71.0165C51.9737 68.6644 54.477 67.0379 57.3072 66.4755L59.5064 66.0361C61.3129 65.6762 63.1805 65.7605 64.9468 66.2818C66.7132 66.8031 68.325 67.7456 69.6422 69.0273C70.9324 70.254 71.8972 71.7795 72.4505 73.4676C73.0038 75.1557 73.1283 76.9539 72.813 78.7016C72.5646 80.1991 71.9542 81.6141 71.0344 82.8248C65.8114 89.6208 66.4818 95.2703 66.4893 95.3267L66.5235 95.5879Z" fill="#F14668"/>
<path d="M73.2934 120.915L64.9611 107.73L67.5855 83.7455L63.9602 65.8076L64.1529 65.8123C66.2615 65.8641 68.2693 66.7209 69.7604 68.2052C71.2516 69.6896 72.1118 71.6877 72.1629 73.7858L75.6896 91.3634L73.2934 120.915Z" fill="#34113F"/>
<path d="M73.4836 156.236C73.1325 156.236 72.7922 156.115 72.5206 155.893C72.249 155.672 72.0627 155.364 71.9934 155.021L68.343 136.959C67.6763 133.65 66.4207 130.486 64.6355 127.617L54.3353 111.038C54.284 110.955 54.2109 110.888 54.1239 110.845C54.037 110.801 53.9396 110.782 53.8424 110.789C53.7453 110.797 53.6521 110.831 53.5733 110.888C53.4944 110.945 53.4329 111.023 53.3954 111.112L36.4608 151.591C36.3247 151.914 36.0801 152.181 35.7686 152.345C35.4572 152.509 35.0981 152.561 34.7525 152.492L30.2286 151.574C29.8411 151.497 29.4991 151.273 29.2757 150.948C29.0523 150.624 28.9651 150.225 29.0328 149.838L32.7232 128.197C33.476 123.786 34.7588 119.481 36.5438 115.375L49.0422 86.6337L67.4867 92.661L68.7038 105.512L77.226 126.045C77.815 127.463 78.167 128.967 78.2682 130.498L79.8426 154.229C79.8671 154.625 79.7351 155.015 79.4746 155.315C79.2142 155.616 78.846 155.803 78.4487 155.837L73.6089 156.231C73.5669 156.235 73.5251 156.236 73.4836 156.236Z" fill="#34113F"/>
<path d="M39.8364 126.796L33.989 121.273L45.0398 78.8723C45.7409 76.2064 47.0555 73.7392 48.8796 71.6657C50.7037 69.5922 52.9873 67.9692 55.5502 66.9248L55.7672 66.8369L55.1767 92.6429L39.8364 126.796Z" fill="#34113F"/>
<path d="M58.5675 63.6379C56.4932 61.8514 55.8623 58.5188 57.1333 56.0618C58.4044 53.6049 61.4435 52.2823 64.0422 53.0551C66.4897 53.783 69.2721 51.3551 68.9739 48.7516C68.6757 46.1482 65.4211 44.4524 63.205 45.7457C61.5268 45.0756 59.6897 44.902 57.9146 45.246C56.1396 45.59 54.5022 46.4369 53.1994 47.6848C50.5959 50.2226 49.6082 54.3714 50.777 57.86C51.9458 61.3487 55.2084 63.9899 58.5675 63.6379Z" fill="#2F2E41"/>
<path d="M51.2226 131.537C51.1201 131.576 51.0135 131.603 50.9047 131.618L37.5548 133.473C37.2318 133.519 36.9028 133.454 36.6217 133.289C36.3406 133.124 36.1243 132.869 36.0084 132.566L24.5172 102.814C24.4428 102.621 24.411 102.415 24.424 102.209C24.4369 102.003 24.4944 101.802 24.5924 101.62C24.6904 101.439 24.8266 101.28 24.9918 101.155C25.157 101.03 25.3473 100.943 25.5497 100.898L25.5498 100.898L38.104 98.11C38.2009 98.0883 38.2946 98.0542 38.3827 98.0085L50.5934 91.6562C50.6878 91.607 50.7873 91.5685 50.8903 91.5413L64.3283 87.9767C64.6725 87.8847 65.0387 87.923 65.3561 88.0841C65.6735 88.2452 65.9196 88.5177 66.0469 88.8489L76.0665 114.791C76.1545 115.017 76.1833 115.261 76.1501 115.501C76.1169 115.741 76.0229 115.969 75.8769 116.163L72.4118 120.793C72.2488 121.011 72.0269 121.178 71.772 121.276L64.1992 124.172C64.1449 124.192 64.0923 124.217 64.0418 124.246L51.4228 131.442C51.3586 131.479 51.2917 131.51 51.2226 131.537Z" fill="white"/>
<path d="M57.4336 91.9428L55.7272 92.3956L51.205 93.5957L51.197 93.5975L45.0059 96.8186L42.7083 98.0142L42.7072 98.0146L39.2565 99.8096L39.1618 99.8308L35.5771 100.626L33.8446 101.012L26.7783 102.581L37.8715 131.302L45.1532 130.291L46.9386 130.042L50.7441 129.513L50.7883 129.508L63.0167 122.534L70.4568 119.689L73.8537 115.15L64.1973 90.1489L57.4336 91.9428Z" fill="#E6E6E6"/>
<path d="M65.7882 94.268L29.0009 108.335L29.6308 109.966L66.4182 95.8991L65.7882 94.268Z" fill="white"/>
<path d="M67.8882 99.7049L31.1008 113.772L31.7308 115.403L68.5182 101.336L67.8882 99.7049Z" fill="white"/>
<path d="M72.1301 110.688L35.3428 124.755L35.9728 126.386L72.7601 112.319L72.1301 110.688Z" fill="white"/>
<path d="M57.4335 91.9427L68.4469 120.457L66.8079 121.084L55.7271 92.3958L57.4335 91.9427Z" fill="white"/>
<path d="M45.0059 96.8186L42.7444 103.08L41.9603 105.251L40.131 110.319L39.7391 111.402L39.3469 112.491L38.8304 113.92L35.123 124.186L34.1592 121.69L37.182 113.319L37.8659 111.423L37.9662 111.147L38.775 108.906L39.7954 106.079L40.5796 103.907L42.7072 98.0146L42.7081 98.0143L45.0059 96.8186Z" fill="white"/>
<path opacity="0.1" d="M63.2833 122.432L63.0166 122.534L50.7883 129.508L50.744 129.513L39.1617 99.8307L39.2565 99.8096L42.7073 98.0146L42.7082 98.0143L45.0059 96.8186L51.1972 93.5975L51.2051 93.5957L63.2833 122.432Z" fill="black"/>
<path d="M51.2777 131.68C51.1643 131.723 51.0463 131.753 50.926 131.77L37.576 133.624C37.2186 133.675 36.8545 133.603 36.5435 133.421C36.2325 133.239 35.9931 132.956 35.8648 132.621L24.3736 102.869C24.2913 102.656 24.2561 102.427 24.2705 102.199C24.2848 101.972 24.3484 101.749 24.4568 101.548C24.5653 101.347 24.716 101.171 24.8989 101.033C25.0817 100.895 25.2922 100.798 25.5162 100.748L38.0705 97.9606C38.1542 97.9418 38.2352 97.9123 38.3114 97.8728L50.5222 91.5205C50.6265 91.4661 50.7367 91.4235 50.8505 91.3933L64.2887 87.8288C64.6696 87.7271 65.0748 87.7694 65.4261 87.9477C65.7773 88.126 66.0497 88.4275 66.1905 88.794L76.21 114.736C76.3074 114.986 76.3392 115.256 76.3026 115.522C76.2659 115.788 76.1618 116.04 76.0003 116.255L72.5351 120.885C72.3548 121.126 72.1093 121.311 71.8272 121.419L64.2544 124.314C64.2074 124.332 64.1619 124.354 64.1182 124.379L51.4993 131.575C51.4282 131.615 51.3541 131.65 51.2777 131.68ZM25.5117 101.387C25.2689 101.48 25.073 101.666 24.9673 101.902C24.8616 102.139 24.8546 102.407 24.9479 102.649L36.4391 132.401C36.518 132.607 36.6651 132.781 36.8563 132.893C37.0475 133.005 37.2713 133.049 37.491 133.018L50.841 131.164C50.9651 131.146 51.0847 131.106 51.1935 131.044L63.8124 123.848C63.8834 123.807 63.9573 123.772 64.0336 123.743L71.6065 120.847C71.7798 120.781 71.9308 120.667 72.0416 120.519L75.5068 115.889C75.6061 115.757 75.6701 115.602 75.6926 115.439C75.7152 115.275 75.6956 115.109 75.6357 114.955L65.6161 89.0136C65.5296 88.7883 65.3622 88.603 65.1463 88.4934C64.9304 88.3838 64.6813 88.3577 64.4473 88.4202L51.0091 91.9848C50.9393 92.0036 50.8717 92.0298 50.8074 92.0629L38.5965 98.4155C38.4726 98.4796 38.3409 98.5276 38.2046 98.5581L25.6503 101.346C25.6031 101.356 25.5568 101.37 25.5117 101.387Z" fill="#E6E6E6"/>
<path d="M35.5771 100.626L46.9385 130.042L45.1533 130.291L33.8445 101.012L35.5771 100.626Z" fill="white"/>
<path d="M38.8447 112.5C39.2973 112.5 39.6642 112.135 39.6642 111.684C39.6642 111.234 39.2973 110.869 38.8447 110.869C38.3921 110.869 38.0251 111.234 38.0251 111.684C38.0251 112.135 38.3921 112.5 38.8447 112.5Z" fill="#3F3D56"/>
<path d="M67.9028 113.369C68.3554 113.369 68.7223 113.004 68.7223 112.554C68.7223 112.103 68.3554 111.738 67.9028 111.738C67.4502 111.738 67.0833 112.103 67.0833 112.554C67.0833 113.004 67.4502 113.369 67.9028 113.369Z" fill="#F14668"/>
<path d="M68.2346 97.8253C69.1647 100.233 68.0454 108.214 67.6518 110.776C67.6394 110.857 67.6055 110.934 67.5538 110.998C67.502 111.062 67.4341 111.111 67.357 111.14C67.2799 111.17 67.1964 111.179 67.1148 111.166C67.0333 111.153 66.9567 111.118 66.8927 111.066C64.8762 109.426 58.6734 104.245 57.7433 101.837C57.4786 101.152 57.3521 100.421 57.3711 99.6869C57.3902 98.9529 57.5543 98.2297 57.8542 97.5588C58.1541 96.8879 58.5839 96.2823 59.119 95.7766C59.6542 95.2709 60.2841 94.8751 60.973 94.6117C61.6619 94.3483 62.3961 94.2224 63.1339 94.2414C63.8716 94.2603 64.5984 94.4236 65.2727 94.722C65.947 95.0205 66.5556 95.4481 67.0638 95.9805C67.572 96.513 67.9699 97.1398 68.2346 97.8253V97.8253Z" fill="#F14668"/>
<path d="M62.9889 102.86C64.6701 102.86 66.0329 101.504 66.0329 99.8312C66.0329 98.1584 64.6701 96.8023 62.9889 96.8023C61.3078 96.8023 59.9449 98.1584 59.9449 99.8312C59.9449 101.504 61.3078 102.86 62.9889 102.86Z" fill="white"/>
<path d="M59.0789 93.2958C59.2021 92.8459 59.4229 92.4284 59.7258 92.0726C60.0287 91.7168 60.4064 91.4315 60.8321 91.2366C61.2579 91.0417 61.7214 90.9421 62.19 90.9448C62.6586 90.9475 63.1209 91.0524 63.5444 91.252L68.9785 86.3644L72.769 88.9258L64.9976 95.7208C64.6133 96.4065 63.9896 96.928 63.2447 97.1867C62.4997 97.4453 61.6853 97.4231 60.9557 97.1241C60.2262 96.8252 59.6322 96.2704 59.2862 95.5648C58.9403 94.8593 58.8665 94.0519 59.0789 93.2958Z" fill="#FFB8B8"/>
<path d="M67.8347 94.8911L63.5751 89.1391L73.2861 82.955L66.3259 73.0728C65.7572 72.2653 65.5078 71.2775 65.6256 70.2985C65.7434 69.3196 66.22 68.4182 66.9642 67.7672C67.7084 67.1162 68.6678 66.7612 69.6586 66.7703C70.6495 66.7793 71.6022 67.1518 72.3342 67.8164L81.0491 75.728C81.8793 76.4816 82.5234 77.4157 82.9312 78.4576C83.3391 79.4995 83.4997 80.6209 83.4006 81.7347C83.3014 82.8485 82.9452 83.9244 82.3597 84.8788C81.7742 85.8331 80.9751 86.64 80.0248 87.2368L67.8347 94.8911Z" fill="#34113F"/>
<path d="M34.4617 109.983C34.8468 109.717 35.1686 109.371 35.4045 108.968C35.6404 108.565 35.7846 108.116 35.8271 107.651C35.8695 107.187 35.8091 106.719 35.6501 106.28C35.4911 105.842 35.2374 105.443 34.9068 105.112L37.7226 98.3838L34.0304 95.6839L30.1881 105.242C29.6669 105.831 29.3811 106.59 29.3848 107.375C29.3885 108.16 29.6815 108.917 30.2083 109.501C30.7351 110.086 31.459 110.457 32.243 110.546C33.0269 110.635 33.8163 110.435 34.4617 109.983V109.983Z" fill="#FFB8B8"/>
<path d="M36.3643 103.151L29.7051 101.608L34.6675 87.3696C35.5227 84.9129 36.7843 82.6155 38.4003 80.5724L46.4961 70.3289C47.2365 69.3919 48.32 68.7851 49.5091 68.6414C50.6983 68.4977 51.8962 68.8288 52.8405 69.5622C53.7848 70.2956 54.3985 71.3715 54.5471 72.5542C54.6957 73.737 54.3671 74.9301 53.6334 75.8722L44.6499 87.4088L36.3643 103.151Z" fill="#34113F"/>
<path d="M142.983 162.847H140.214V1.37746C140.214 1.01214 140.36 0.661776 140.619 0.403451C140.879 0.145127 141.231 0 141.598 0C141.965 0 142.318 0.145127 142.577 0.403451C142.837 0.661776 142.983 1.01214 142.983 1.37746V162.847Z" fill="#E6E6E6"/>
<path d="M162.195 21.1211H121.91C121.542 21.1207 121.191 20.9755 120.931 20.7172C120.672 20.459 120.526 20.1089 120.525 19.7437V8.11173C120.526 7.74653 120.672 7.39641 120.931 7.13817C121.191 6.87994 121.542 6.73468 121.91 6.73427H162.198C162.434 6.73443 162.666 6.79457 162.872 6.90899L173.29 12.694C173.505 12.8132 173.684 12.9872 173.809 13.1981C173.933 13.409 174 13.6491 174 13.8938C174.001 14.1385 173.936 14.3789 173.812 14.5903C173.688 14.8017 173.51 14.9765 173.296 15.0967L162.875 20.9436C162.667 21.0598 162.433 21.121 162.195 21.1211Z" fill="#F14668"/>
<path d="M158.518 46.2216H118.233C117.995 46.2214 117.761 46.1603 117.553 46.044L107.132 40.1971C106.918 40.077 106.74 39.9022 106.616 39.6908C106.492 39.4794 106.427 39.239 106.428 38.9943C106.428 38.7496 106.494 38.5094 106.619 38.2986C106.744 38.0877 106.923 37.9137 107.137 37.7945L117.556 32.0095C117.762 31.895 117.994 31.8349 118.23 31.8347H158.518C158.885 31.8352 159.237 31.9804 159.497 32.2387C159.756 32.4969 159.902 32.847 159.903 33.2122V44.8441C159.902 45.2093 159.756 45.5595 159.497 45.8177C159.237 46.0759 158.885 46.2212 158.518 46.2216Z" fill="#E6E6E6"/>
<path d="M158.672 70.8629H118.387C118.149 70.8627 117.915 70.8016 117.707 70.6853L107.286 64.8384C107.072 64.7183 106.894 64.5435 106.77 64.3321C106.646 64.1207 106.581 63.8802 106.582 63.6356C106.582 63.3909 106.648 63.1507 106.773 62.9399C106.898 62.729 107.077 62.555 107.291 62.4358L117.71 56.6508C117.916 56.5363 118.148 56.4762 118.384 56.476H158.672C159.039 56.4765 159.391 56.6217 159.651 56.88C159.91 57.1382 160.056 57.4883 160.057 57.8535V69.4854C160.056 69.8506 159.91 70.2008 159.651 70.459C159.391 70.7172 159.039 70.8625 158.672 70.8629Z" fill="#E6E6E6"/>
</g>
<defs>
<clipPath id="clip0">
<rect width="194" height="163" fill="white"/>
</clipPath>
</defs>
</svg>
